G04 #@! TF.FileFunction,Legend,Top*
%FSLAX46Y46*%
G04 Gerber Fmt 4.6, Leading zero omitted, Abs format (unit mm)*
G04 Created by KiCad (PCBNEW 4.0.1-stable) date 05.07.2016 19:52:16*
%MOMM*%
G01*
G04 APERTURE LIST*
%ADD10C,0.100000*%
%ADD11C,0.300000*%
%ADD12C,0.150000*%
%ADD13C,0.381000*%
%ADD14C,0.304800*%
G04 APERTURE END LIST*
D10*
D11*
X41297147Y-106723571D02*
X41297147Y-105223571D01*
X41868575Y-105223571D01*
X42011433Y-105295000D01*
X42082861Y-105366429D01*
X42154290Y-105509286D01*
X42154290Y-105723571D01*
X42082861Y-105866429D01*
X42011433Y-105937857D01*
X41868575Y-106009286D01*
X41297147Y-106009286D01*
X43011433Y-105866429D02*
X42868575Y-105795000D01*
X42797147Y-105723571D01*
X42725718Y-105580714D01*
X42725718Y-105509286D01*
X42797147Y-105366429D01*
X42868575Y-105295000D01*
X43011433Y-105223571D01*
X43297147Y-105223571D01*
X43440004Y-105295000D01*
X43511433Y-105366429D01*
X43582861Y-105509286D01*
X43582861Y-105580714D01*
X43511433Y-105723571D01*
X43440004Y-105795000D01*
X43297147Y-105866429D01*
X43011433Y-105866429D01*
X42868575Y-105937857D01*
X42797147Y-106009286D01*
X42725718Y-106152143D01*
X42725718Y-106437857D01*
X42797147Y-106580714D01*
X42868575Y-106652143D01*
X43011433Y-106723571D01*
X43297147Y-106723571D01*
X43440004Y-106652143D01*
X43511433Y-106580714D01*
X43582861Y-106437857D01*
X43582861Y-106152143D01*
X43511433Y-106009286D01*
X43440004Y-105937857D01*
X43297147Y-105866429D01*
X44511432Y-105223571D02*
X44654289Y-105223571D01*
X44797146Y-105295000D01*
X44868575Y-105366429D01*
X44940004Y-105509286D01*
X45011432Y-105795000D01*
X45011432Y-106152143D01*
X44940004Y-106437857D01*
X44868575Y-106580714D01*
X44797146Y-106652143D01*
X44654289Y-106723571D01*
X44511432Y-106723571D01*
X44368575Y-106652143D01*
X44297146Y-106580714D01*
X44225718Y-106437857D01*
X44154289Y-106152143D01*
X44154289Y-105795000D01*
X44225718Y-105509286D01*
X44297146Y-105366429D01*
X44368575Y-105295000D01*
X44511432Y-105223571D01*
X45940003Y-105223571D02*
X46082860Y-105223571D01*
X46225717Y-105295000D01*
X46297146Y-105366429D01*
X46368575Y-105509286D01*
X46440003Y-105795000D01*
X46440003Y-106152143D01*
X46368575Y-106437857D01*
X46297146Y-106580714D01*
X46225717Y-106652143D01*
X46082860Y-106723571D01*
X45940003Y-106723571D01*
X45797146Y-106652143D01*
X45725717Y-106580714D01*
X45654289Y-106437857D01*
X45582860Y-106152143D01*
X45582860Y-105795000D01*
X45654289Y-105509286D01*
X45725717Y-105366429D01*
X45797146Y-105295000D01*
X45940003Y-105223571D01*
X47368574Y-105223571D02*
X47511431Y-105223571D01*
X47654288Y-105295000D01*
X47725717Y-105366429D01*
X47797146Y-105509286D01*
X47868574Y-105795000D01*
X47868574Y-106152143D01*
X47797146Y-106437857D01*
X47725717Y-106580714D01*
X47654288Y-106652143D01*
X47511431Y-106723571D01*
X47368574Y-106723571D01*
X47225717Y-106652143D01*
X47154288Y-106580714D01*
X47082860Y-106437857D01*
X47011431Y-106152143D01*
X47011431Y-105795000D01*
X47082860Y-105509286D01*
X47154288Y-105366429D01*
X47225717Y-105295000D01*
X47368574Y-105223571D01*
X49654288Y-105937857D02*
X50154288Y-105937857D01*
X50368574Y-106723571D02*
X49654288Y-106723571D01*
X49654288Y-105223571D01*
X50368574Y-105223571D01*
X51654288Y-106652143D02*
X51511431Y-106723571D01*
X51225717Y-106723571D01*
X51082859Y-106652143D01*
X51011431Y-106580714D01*
X50940002Y-106437857D01*
X50940002Y-106009286D01*
X51011431Y-105866429D01*
X51082859Y-105795000D01*
X51225717Y-105723571D01*
X51511431Y-105723571D01*
X51654288Y-105795000D01*
X52297145Y-106723571D02*
X52297145Y-105223571D01*
X52940002Y-106723571D02*
X52940002Y-105937857D01*
X52868573Y-105795000D01*
X52725716Y-105723571D01*
X52511431Y-105723571D01*
X52368573Y-105795000D01*
X52297145Y-105866429D01*
X53440002Y-105723571D02*
X54011431Y-105723571D01*
X53654288Y-105223571D02*
X53654288Y-106509286D01*
X53725716Y-106652143D01*
X53868574Y-106723571D01*
X54011431Y-106723571D01*
X54368574Y-105723571D02*
X55154288Y-105723571D01*
X54368574Y-106723571D01*
X55154288Y-106723571D01*
X56297145Y-106652143D02*
X56154288Y-106723571D01*
X55868574Y-106723571D01*
X55725717Y-106652143D01*
X55654288Y-106509286D01*
X55654288Y-105937857D01*
X55725717Y-105795000D01*
X55868574Y-105723571D01*
X56154288Y-105723571D01*
X56297145Y-105795000D01*
X56368574Y-105937857D01*
X56368574Y-106080714D01*
X55654288Y-106223571D01*
X57011431Y-106723571D02*
X57011431Y-105723571D01*
X57011431Y-105223571D02*
X56940002Y-105295000D01*
X57011431Y-105366429D01*
X57082859Y-105295000D01*
X57011431Y-105223571D01*
X57011431Y-105366429D01*
X57511431Y-105723571D02*
X58082860Y-105723571D01*
X57725717Y-105223571D02*
X57725717Y-106509286D01*
X57797145Y-106652143D01*
X57940003Y-106723571D01*
X58082860Y-106723571D01*
X59225717Y-105723571D02*
X59225717Y-106723571D01*
X58582860Y-105723571D02*
X58582860Y-106509286D01*
X58654288Y-106652143D01*
X58797146Y-106723571D01*
X59011431Y-106723571D01*
X59154288Y-106652143D01*
X59225717Y-106580714D01*
X59940003Y-106723571D02*
X59940003Y-105223571D01*
X60582860Y-106723571D02*
X60582860Y-105937857D01*
X60511431Y-105795000D01*
X60368574Y-105723571D01*
X60154289Y-105723571D01*
X60011431Y-105795000D01*
X59940003Y-105866429D01*
X61297146Y-106723571D02*
X61297146Y-105723571D01*
X61297146Y-106009286D02*
X61368574Y-105866429D01*
X61440003Y-105795000D01*
X61582860Y-105723571D01*
X61725717Y-105723571D01*
X63225717Y-105723571D02*
X63582860Y-106723571D01*
X63940002Y-105723571D01*
X65297145Y-106723571D02*
X64440002Y-106723571D01*
X64868574Y-106723571D02*
X64868574Y-105223571D01*
X64725717Y-105437857D01*
X64582859Y-105580714D01*
X64440002Y-105652143D01*
X65940002Y-106580714D02*
X66011430Y-106652143D01*
X65940002Y-106723571D01*
X65868573Y-106652143D01*
X65940002Y-106580714D01*
X65940002Y-106723571D01*
X66582859Y-105366429D02*
X66654288Y-105295000D01*
X66797145Y-105223571D01*
X67154288Y-105223571D01*
X67297145Y-105295000D01*
X67368574Y-105366429D01*
X67440002Y-105509286D01*
X67440002Y-105652143D01*
X67368574Y-105866429D01*
X66511431Y-106723571D01*
X67440002Y-106723571D01*
X75368572Y-107295000D02*
X75297144Y-107223571D01*
X75154287Y-107009286D01*
X75082858Y-106866429D01*
X75011429Y-106652143D01*
X74940001Y-106295000D01*
X74940001Y-106009286D01*
X75011429Y-105652143D01*
X75082858Y-105437857D01*
X75154287Y-105295000D01*
X75297144Y-105080714D01*
X75368572Y-105009286D01*
X76582858Y-106652143D02*
X76440001Y-106723571D01*
X76154287Y-106723571D01*
X76011429Y-106652143D01*
X75940001Y-106580714D01*
X75868572Y-106437857D01*
X75868572Y-106009286D01*
X75940001Y-105866429D01*
X76011429Y-105795000D01*
X76154287Y-105723571D01*
X76440001Y-105723571D01*
X76582858Y-105795000D01*
X77082858Y-107295000D02*
X77154286Y-107223571D01*
X77297143Y-107009286D01*
X77368572Y-106866429D01*
X77440001Y-106652143D01*
X77511429Y-106295000D01*
X77511429Y-106009286D01*
X77440001Y-105652143D01*
X77368572Y-105437857D01*
X77297143Y-105295000D01*
X77154286Y-105080714D01*
X77082858Y-105009286D01*
X79654286Y-105223571D02*
X79940000Y-105223571D01*
X80082858Y-105295000D01*
X80225715Y-105437857D01*
X80297143Y-105723571D01*
X80297143Y-106223571D01*
X80225715Y-106509286D01*
X80082858Y-106652143D01*
X79940000Y-106723571D01*
X79654286Y-106723571D01*
X79511429Y-106652143D01*
X79368572Y-106509286D01*
X79297143Y-106223571D01*
X79297143Y-105723571D01*
X79368572Y-105437857D01*
X79511429Y-105295000D01*
X79654286Y-105223571D01*
X81154287Y-106723571D02*
X81011429Y-106652143D01*
X80940001Y-106509286D01*
X80940001Y-105223571D01*
X81725715Y-106723571D02*
X81725715Y-105723571D01*
X81725715Y-105223571D02*
X81654286Y-105295000D01*
X81725715Y-105366429D01*
X81797143Y-105295000D01*
X81725715Y-105223571D01*
X81725715Y-105366429D01*
X82297144Y-105723571D02*
X82654287Y-106723571D01*
X83011429Y-105723571D01*
X84154286Y-106652143D02*
X84011429Y-106723571D01*
X83725715Y-106723571D01*
X83582858Y-106652143D01*
X83511429Y-106509286D01*
X83511429Y-105937857D01*
X83582858Y-105795000D01*
X83725715Y-105723571D01*
X84011429Y-105723571D01*
X84154286Y-105795000D01*
X84225715Y-105937857D01*
X84225715Y-106080714D01*
X83511429Y-106223571D01*
X84868572Y-106723571D02*
X84868572Y-105723571D01*
X84868572Y-106009286D02*
X84940000Y-105866429D01*
X85011429Y-105795000D01*
X85154286Y-105723571D01*
X85297143Y-105723571D01*
X87654286Y-106723571D02*
X86940000Y-106723571D01*
X86940000Y-105223571D01*
X88725714Y-106652143D02*
X88582857Y-106723571D01*
X88297143Y-106723571D01*
X88154286Y-106652143D01*
X88082857Y-106509286D01*
X88082857Y-105937857D01*
X88154286Y-105795000D01*
X88297143Y-105723571D01*
X88582857Y-105723571D01*
X88725714Y-105795000D01*
X88797143Y-105937857D01*
X88797143Y-106080714D01*
X88082857Y-106223571D01*
X89440000Y-106723571D02*
X89440000Y-105223571D01*
X90082857Y-106723571D02*
X90082857Y-105937857D01*
X90011428Y-105795000D01*
X89868571Y-105723571D01*
X89654286Y-105723571D01*
X89511428Y-105795000D01*
X89440000Y-105866429D01*
X90797143Y-106723571D02*
X90797143Y-105723571D01*
X90797143Y-105866429D02*
X90868571Y-105795000D01*
X91011429Y-105723571D01*
X91225714Y-105723571D01*
X91368571Y-105795000D01*
X91440000Y-105937857D01*
X91440000Y-106723571D01*
X91440000Y-105937857D02*
X91511429Y-105795000D01*
X91654286Y-105723571D01*
X91868571Y-105723571D01*
X92011429Y-105795000D01*
X92082857Y-105937857D01*
X92082857Y-106723571D01*
X93440000Y-106723571D02*
X93440000Y-105937857D01*
X93368571Y-105795000D01*
X93225714Y-105723571D01*
X92940000Y-105723571D01*
X92797143Y-105795000D01*
X93440000Y-106652143D02*
X93297143Y-106723571D01*
X92940000Y-106723571D01*
X92797143Y-106652143D01*
X92725714Y-106509286D01*
X92725714Y-106366429D01*
X92797143Y-106223571D01*
X92940000Y-106152143D01*
X93297143Y-106152143D01*
X93440000Y-106080714D01*
X94154286Y-105723571D02*
X94154286Y-106723571D01*
X94154286Y-105866429D02*
X94225714Y-105795000D01*
X94368572Y-105723571D01*
X94582857Y-105723571D01*
X94725714Y-105795000D01*
X94797143Y-105937857D01*
X94797143Y-106723571D01*
X95511429Y-105723571D02*
X95511429Y-106723571D01*
X95511429Y-105866429D02*
X95582857Y-105795000D01*
X95725715Y-105723571D01*
X95940000Y-105723571D01*
X96082857Y-105795000D01*
X96154286Y-105937857D01*
X96154286Y-106723571D01*
X97940000Y-105366429D02*
X98011429Y-105295000D01*
X98154286Y-105223571D01*
X98511429Y-105223571D01*
X98654286Y-105295000D01*
X98725715Y-105366429D01*
X98797143Y-105509286D01*
X98797143Y-105652143D01*
X98725715Y-105866429D01*
X97868572Y-106723571D01*
X98797143Y-106723571D01*
X99725714Y-105223571D02*
X99868571Y-105223571D01*
X100011428Y-105295000D01*
X100082857Y-105366429D01*
X100154286Y-105509286D01*
X100225714Y-105795000D01*
X100225714Y-106152143D01*
X100154286Y-106437857D01*
X100082857Y-106580714D01*
X100011428Y-106652143D01*
X99868571Y-106723571D01*
X99725714Y-106723571D01*
X99582857Y-106652143D01*
X99511428Y-106580714D01*
X99440000Y-106437857D01*
X99368571Y-106152143D01*
X99368571Y-105795000D01*
X99440000Y-105509286D01*
X99511428Y-105366429D01*
X99582857Y-105295000D01*
X99725714Y-105223571D01*
X101154285Y-105223571D02*
X101297142Y-105223571D01*
X101439999Y-105295000D01*
X101511428Y-105366429D01*
X101582857Y-105509286D01*
X101654285Y-105795000D01*
X101654285Y-106152143D01*
X101582857Y-106437857D01*
X101511428Y-106580714D01*
X101439999Y-106652143D01*
X101297142Y-106723571D01*
X101154285Y-106723571D01*
X101011428Y-106652143D01*
X100939999Y-106580714D01*
X100868571Y-106437857D01*
X100797142Y-106152143D01*
X100797142Y-105795000D01*
X100868571Y-105509286D01*
X100939999Y-105366429D01*
X101011428Y-105295000D01*
X101154285Y-105223571D01*
X102368570Y-106723571D02*
X102654285Y-106723571D01*
X102797142Y-106652143D01*
X102868570Y-106580714D01*
X103011428Y-106366429D01*
X103082856Y-106080714D01*
X103082856Y-105509286D01*
X103011428Y-105366429D01*
X102939999Y-105295000D01*
X102797142Y-105223571D01*
X102511428Y-105223571D01*
X102368570Y-105295000D01*
X102297142Y-105366429D01*
X102225713Y-105509286D01*
X102225713Y-105866429D01*
X102297142Y-106009286D01*
X102368570Y-106080714D01*
X102511428Y-106152143D01*
X102797142Y-106152143D01*
X102939999Y-106080714D01*
X103011428Y-106009286D01*
X103082856Y-105866429D01*
X103797141Y-106652143D02*
X103797141Y-106723571D01*
X103725713Y-106866429D01*
X103654284Y-106937857D01*
X105511427Y-105366429D02*
X105582856Y-105295000D01*
X105725713Y-105223571D01*
X106082856Y-105223571D01*
X106225713Y-105295000D01*
X106297142Y-105366429D01*
X106368570Y-105509286D01*
X106368570Y-105652143D01*
X106297142Y-105866429D01*
X105439999Y-106723571D01*
X106368570Y-106723571D01*
X107297141Y-105223571D02*
X107439998Y-105223571D01*
X107582855Y-105295000D01*
X107654284Y-105366429D01*
X107725713Y-105509286D01*
X107797141Y-105795000D01*
X107797141Y-106152143D01*
X107725713Y-106437857D01*
X107654284Y-106580714D01*
X107582855Y-106652143D01*
X107439998Y-106723571D01*
X107297141Y-106723571D01*
X107154284Y-106652143D01*
X107082855Y-106580714D01*
X107011427Y-106437857D01*
X106939998Y-106152143D01*
X106939998Y-105795000D01*
X107011427Y-105509286D01*
X107082855Y-105366429D01*
X107154284Y-105295000D01*
X107297141Y-105223571D01*
X109225712Y-106723571D02*
X108368569Y-106723571D01*
X108797141Y-106723571D02*
X108797141Y-105223571D01*
X108654284Y-105437857D01*
X108511426Y-105580714D01*
X108368569Y-105652143D01*
X110511426Y-105223571D02*
X110225712Y-105223571D01*
X110082855Y-105295000D01*
X110011426Y-105366429D01*
X109868569Y-105580714D01*
X109797140Y-105866429D01*
X109797140Y-106437857D01*
X109868569Y-106580714D01*
X109939997Y-106652143D01*
X110082855Y-106723571D01*
X110368569Y-106723571D01*
X110511426Y-106652143D01*
X110582855Y-106580714D01*
X110654283Y-106437857D01*
X110654283Y-106080714D01*
X110582855Y-105937857D01*
X110511426Y-105866429D01*
X110368569Y-105795000D01*
X110082855Y-105795000D01*
X109939997Y-105866429D01*
X109868569Y-105937857D01*
X109797140Y-106080714D01*
X117225711Y-106723571D02*
X117082853Y-106652143D01*
X117011425Y-106509286D01*
X117011425Y-105223571D01*
X118368567Y-106652143D02*
X118225710Y-106723571D01*
X117939996Y-106723571D01*
X117797139Y-106652143D01*
X117725710Y-106509286D01*
X117725710Y-105937857D01*
X117797139Y-105795000D01*
X117939996Y-105723571D01*
X118225710Y-105723571D01*
X118368567Y-105795000D01*
X118439996Y-105937857D01*
X118439996Y-106080714D01*
X117725710Y-106223571D01*
X119082853Y-106723571D02*
X119082853Y-105223571D01*
X119725710Y-106723571D02*
X119725710Y-105937857D01*
X119654281Y-105795000D01*
X119511424Y-105723571D01*
X119297139Y-105723571D01*
X119154281Y-105795000D01*
X119082853Y-105866429D01*
X120439996Y-106723571D02*
X120439996Y-105723571D01*
X120439996Y-105866429D02*
X120511424Y-105795000D01*
X120654282Y-105723571D01*
X120868567Y-105723571D01*
X121011424Y-105795000D01*
X121082853Y-105937857D01*
X121082853Y-106723571D01*
X121082853Y-105937857D02*
X121154282Y-105795000D01*
X121297139Y-105723571D01*
X121511424Y-105723571D01*
X121654282Y-105795000D01*
X121725710Y-105937857D01*
X121725710Y-106723571D01*
X123082853Y-106723571D02*
X123082853Y-105937857D01*
X123011424Y-105795000D01*
X122868567Y-105723571D01*
X122582853Y-105723571D01*
X122439996Y-105795000D01*
X123082853Y-106652143D02*
X122939996Y-106723571D01*
X122582853Y-106723571D01*
X122439996Y-106652143D01*
X122368567Y-106509286D01*
X122368567Y-106366429D01*
X122439996Y-106223571D01*
X122582853Y-106152143D01*
X122939996Y-106152143D01*
X123082853Y-106080714D01*
X123797139Y-105723571D02*
X123797139Y-106723571D01*
X123797139Y-105866429D02*
X123868567Y-105795000D01*
X124011425Y-105723571D01*
X124225710Y-105723571D01*
X124368567Y-105795000D01*
X124439996Y-105937857D01*
X124439996Y-106723571D01*
X125154282Y-105723571D02*
X125154282Y-106723571D01*
X125154282Y-105866429D02*
X125225710Y-105795000D01*
X125368568Y-105723571D01*
X125582853Y-105723571D01*
X125725710Y-105795000D01*
X125797139Y-105937857D01*
X125797139Y-106723571D01*
X127439996Y-106009286D02*
X127368568Y-105937857D01*
X127225711Y-105866429D01*
X127082853Y-105866429D01*
X126939996Y-105937857D01*
X126868568Y-106009286D01*
X126797139Y-106152143D01*
X126797139Y-106295000D01*
X126868568Y-106437857D01*
X126939996Y-106509286D01*
X127082853Y-106580714D01*
X127225711Y-106580714D01*
X127368568Y-106509286D01*
X127439996Y-106437857D01*
X127439996Y-105866429D02*
X127439996Y-106437857D01*
X127511425Y-106509286D01*
X127582853Y-106509286D01*
X127725711Y-106437857D01*
X127797139Y-106295000D01*
X127797139Y-105937857D01*
X127654282Y-105723571D01*
X127439996Y-105580714D01*
X127154282Y-105509286D01*
X126868568Y-105580714D01*
X126654282Y-105723571D01*
X126511425Y-105937857D01*
X126439996Y-106223571D01*
X126511425Y-106509286D01*
X126654282Y-106723571D01*
X126868568Y-106866429D01*
X127154282Y-106937857D01*
X127439996Y-106866429D01*
X127654282Y-106723571D01*
X129082853Y-106723571D02*
X129082853Y-105937857D01*
X129011424Y-105795000D01*
X128868567Y-105723571D01*
X128582853Y-105723571D01*
X128439996Y-105795000D01*
X129082853Y-106652143D02*
X128939996Y-106723571D01*
X128582853Y-106723571D01*
X128439996Y-106652143D01*
X128368567Y-106509286D01*
X128368567Y-106366429D01*
X128439996Y-106223571D01*
X128582853Y-106152143D01*
X128939996Y-106152143D01*
X129082853Y-106080714D01*
X129797139Y-105723571D02*
X129797139Y-106723571D01*
X129797139Y-105866429D02*
X129868567Y-105795000D01*
X130011425Y-105723571D01*
X130225710Y-105723571D01*
X130368567Y-105795000D01*
X130439996Y-105937857D01*
X130439996Y-106723571D01*
X131082853Y-106652143D02*
X131225710Y-106723571D01*
X131511425Y-106723571D01*
X131654282Y-106652143D01*
X131725710Y-106509286D01*
X131725710Y-106437857D01*
X131654282Y-106295000D01*
X131511425Y-106223571D01*
X131297139Y-106223571D01*
X131154282Y-106152143D01*
X131082853Y-106009286D01*
X131082853Y-105937857D01*
X131154282Y-105795000D01*
X131297139Y-105723571D01*
X131511425Y-105723571D01*
X131654282Y-105795000D01*
X132368568Y-106152143D02*
X133511425Y-106152143D01*
X134225711Y-105723571D02*
X134225711Y-106723571D01*
X134225711Y-105866429D02*
X134297139Y-105795000D01*
X134439997Y-105723571D01*
X134654282Y-105723571D01*
X134797139Y-105795000D01*
X134868568Y-105937857D01*
X134868568Y-106723571D01*
X136154282Y-106652143D02*
X136011425Y-106723571D01*
X135725711Y-106723571D01*
X135582854Y-106652143D01*
X135511425Y-106509286D01*
X135511425Y-105937857D01*
X135582854Y-105795000D01*
X135725711Y-105723571D01*
X136011425Y-105723571D01*
X136154282Y-105795000D01*
X136225711Y-105937857D01*
X136225711Y-106080714D01*
X135511425Y-106223571D01*
X136654282Y-105723571D02*
X137225711Y-105723571D01*
X136868568Y-105223571D02*
X136868568Y-106509286D01*
X136939996Y-106652143D01*
X137082854Y-106723571D01*
X137225711Y-106723571D01*
X137582854Y-105723571D02*
X138368568Y-105723571D01*
X137582854Y-106723571D01*
X138368568Y-106723571D01*
X138939997Y-106580714D02*
X139011425Y-106652143D01*
X138939997Y-106723571D01*
X138868568Y-106652143D01*
X138939997Y-106580714D01*
X138939997Y-106723571D01*
X140297140Y-106723571D02*
X140297140Y-105223571D01*
X140297140Y-106652143D02*
X140154283Y-106723571D01*
X139868569Y-106723571D01*
X139725711Y-106652143D01*
X139654283Y-106580714D01*
X139582854Y-106437857D01*
X139582854Y-106009286D01*
X139654283Y-105866429D01*
X139725711Y-105795000D01*
X139868569Y-105723571D01*
X140154283Y-105723571D01*
X140297140Y-105795000D01*
X141582854Y-106652143D02*
X141439997Y-106723571D01*
X141154283Y-106723571D01*
X141011426Y-106652143D01*
X140939997Y-106509286D01*
X140939997Y-105937857D01*
X141011426Y-105795000D01*
X141154283Y-105723571D01*
X141439997Y-105723571D01*
X141582854Y-105795000D01*
X141654283Y-105937857D01*
X141654283Y-106080714D01*
X140939997Y-106223571D01*
D12*
X101355000Y-109355000D02*
X100085000Y-109355000D01*
X101355000Y-116705000D02*
X100085000Y-116705000D01*
X81525000Y-116705000D02*
X82795000Y-116705000D01*
X81525000Y-109355000D02*
X82795000Y-109355000D01*
X101355000Y-109355000D02*
X101355000Y-116705000D01*
X81525000Y-109355000D02*
X81525000Y-116705000D01*
X100085000Y-109355000D02*
X100085000Y-108420000D01*
D13*
X135890000Y-145034000D02*
X135890000Y-152146000D01*
X135890000Y-152146000D02*
X46990000Y-152146000D01*
X46990000Y-152146000D02*
X46990000Y-145034000D01*
X138557000Y-139700000D02*
X132207000Y-139700000D01*
X138557000Y-139700000D02*
X138557000Y-145034000D01*
X138557000Y-145034000D02*
X44323000Y-145034000D01*
X44323000Y-145034000D02*
X44323000Y-139700000D01*
X44323000Y-139700000D02*
X50673000Y-139700000D01*
D12*
X105430000Y-128520000D02*
X105430000Y-125520000D01*
X107930000Y-125520000D02*
X107930000Y-128520000D01*
X109220000Y-111760000D02*
X109982000Y-111760000D01*
X109982000Y-111760000D02*
X109982000Y-112776000D01*
X109982000Y-112776000D02*
X116078000Y-112776000D01*
X116078000Y-112776000D02*
X116078000Y-111760000D01*
X116078000Y-111760000D02*
X116840000Y-111760000D01*
X116078000Y-111760000D02*
X116078000Y-110744000D01*
X116078000Y-110744000D02*
X109982000Y-110744000D01*
X109982000Y-110744000D02*
X109982000Y-111760000D01*
X110490000Y-112776000D02*
X110490000Y-110744000D01*
X110744000Y-110744000D02*
X110744000Y-112776000D01*
X102890000Y-117090000D02*
X102890000Y-114090000D01*
X105390000Y-114090000D02*
X105390000Y-117090000D01*
X109220000Y-109220000D02*
X109982000Y-109220000D01*
X109982000Y-109220000D02*
X109982000Y-110236000D01*
X109982000Y-110236000D02*
X116078000Y-110236000D01*
X116078000Y-110236000D02*
X116078000Y-109220000D01*
X116078000Y-109220000D02*
X116840000Y-109220000D01*
X116078000Y-109220000D02*
X116078000Y-108204000D01*
X116078000Y-108204000D02*
X109982000Y-108204000D01*
X109982000Y-108204000D02*
X109982000Y-109220000D01*
X110490000Y-110236000D02*
X110490000Y-108204000D01*
X110744000Y-108204000D02*
X110744000Y-110236000D01*
X79990000Y-125480000D02*
X79990000Y-128480000D01*
X77490000Y-128480000D02*
X77490000Y-125480000D01*
X103895000Y-120785000D02*
X102625000Y-120785000D01*
X103895000Y-128135000D02*
X102625000Y-128135000D01*
X81525000Y-128135000D02*
X82795000Y-128135000D01*
X81525000Y-120785000D02*
X82795000Y-120785000D01*
X103895000Y-120785000D02*
X103895000Y-128135000D01*
X81525000Y-120785000D02*
X81525000Y-128135000D01*
X102625000Y-120785000D02*
X102625000Y-119850000D01*
X73415000Y-109355000D02*
X72145000Y-109355000D01*
X73415000Y-116705000D02*
X72145000Y-116705000D01*
X48505000Y-116705000D02*
X49775000Y-116705000D01*
X48505000Y-109355000D02*
X49775000Y-109355000D01*
X73415000Y-109355000D02*
X73415000Y-116705000D01*
X48505000Y-109355000D02*
X48505000Y-116705000D01*
X72145000Y-109355000D02*
X72145000Y-108420000D01*
X75955000Y-120785000D02*
X74685000Y-120785000D01*
X75955000Y-128135000D02*
X74685000Y-128135000D01*
X48505000Y-128135000D02*
X49775000Y-128135000D01*
X48505000Y-120785000D02*
X49775000Y-120785000D01*
X75955000Y-120785000D02*
X75955000Y-128135000D01*
X48505000Y-120785000D02*
X48505000Y-128135000D01*
X74685000Y-120785000D02*
X74685000Y-119850000D01*
X78105000Y-109220000D02*
X78105000Y-109728000D01*
X78105000Y-116840000D02*
X78105000Y-116332000D01*
X78105000Y-116332000D02*
X79121000Y-116332000D01*
X79121000Y-116332000D02*
X79121000Y-109728000D01*
X79121000Y-109728000D02*
X77089000Y-109728000D01*
X77089000Y-109728000D02*
X77089000Y-116332000D01*
X77089000Y-116332000D02*
X78105000Y-116332000D01*
X78613000Y-109728000D02*
X79121000Y-110236000D01*
X75565000Y-109220000D02*
X75565000Y-109728000D01*
X75565000Y-116840000D02*
X75565000Y-116332000D01*
X75565000Y-116332000D02*
X76581000Y-116332000D01*
X76581000Y-116332000D02*
X76581000Y-109728000D01*
X76581000Y-109728000D02*
X74549000Y-109728000D01*
X74549000Y-109728000D02*
X74549000Y-116332000D01*
X74549000Y-116332000D02*
X75565000Y-116332000D01*
X76073000Y-109728000D02*
X76581000Y-110236000D01*
X114300000Y-114300000D02*
X114300000Y-113030000D01*
X114935000Y-113665000D02*
X113665000Y-113665000D01*
X118745000Y-120650000D02*
X112395000Y-120650000D01*
X112395000Y-120650000D02*
X112395000Y-115570000D01*
X112395000Y-115570000D02*
X118745000Y-115570000D01*
X112395000Y-121285000D02*
X111760000Y-121285000D01*
X111760000Y-121285000D02*
X111760000Y-114935000D01*
X111760000Y-114935000D02*
X112395000Y-114935000D01*
X113665000Y-121285000D02*
X112395000Y-121285000D01*
X112395000Y-114935000D02*
X118745000Y-114935000D01*
X118745000Y-121285000D02*
X113665000Y-121285000D01*
X138520256Y-118110000D02*
G75*
G03X138520256Y-118110000I-8980256J0D01*
G01*
X140464953Y-118110000D02*
G75*
G03X140464953Y-118110000I-10924953J0D01*
G01*
X44450000Y-125730000D02*
X44450000Y-107950000D01*
X44450000Y-107950000D02*
X46990000Y-107950000D01*
X46990000Y-107950000D02*
X46990000Y-125730000D01*
X44170000Y-128550000D02*
X44170000Y-127000000D01*
X44450000Y-125730000D02*
X46990000Y-125730000D01*
X47270000Y-127000000D02*
X47270000Y-128550000D01*
X47270000Y-128550000D02*
X44170000Y-128550000D01*
X100861905Y-109037381D02*
X100861905Y-108037381D01*
X101100000Y-108037381D01*
X101242858Y-108085000D01*
X101338096Y-108180238D01*
X101385715Y-108275476D01*
X101433334Y-108465952D01*
X101433334Y-108608810D01*
X101385715Y-108799286D01*
X101338096Y-108894524D01*
X101242858Y-108989762D01*
X101100000Y-109037381D01*
X100861905Y-109037381D01*
X101814286Y-108132619D02*
X101861905Y-108085000D01*
X101957143Y-108037381D01*
X102195239Y-108037381D01*
X102290477Y-108085000D01*
X102338096Y-108132619D01*
X102385715Y-108227857D01*
X102385715Y-108323095D01*
X102338096Y-108465952D01*
X101766667Y-109037381D01*
X102385715Y-109037381D01*
X88797143Y-112482381D02*
X89463810Y-112482381D01*
X89035238Y-113482381D01*
X90273334Y-112815714D02*
X90273334Y-113482381D01*
X90035238Y-112434762D02*
X89797143Y-113149048D01*
X90416191Y-113149048D01*
X91273334Y-113482381D02*
X90797143Y-113482381D01*
X90797143Y-112482381D01*
X91559048Y-113434762D02*
X91701905Y-113482381D01*
X91940001Y-113482381D01*
X92035239Y-113434762D01*
X92082858Y-113387143D01*
X92130477Y-113291905D01*
X92130477Y-113196667D01*
X92082858Y-113101429D01*
X92035239Y-113053810D01*
X91940001Y-113006190D01*
X91749524Y-112958571D01*
X91654286Y-112910952D01*
X91606667Y-112863333D01*
X91559048Y-112768095D01*
X91559048Y-112672857D01*
X91606667Y-112577619D01*
X91654286Y-112530000D01*
X91749524Y-112482381D01*
X91987620Y-112482381D01*
X92130477Y-112530000D01*
X92749524Y-112482381D02*
X92844763Y-112482381D01*
X92940001Y-112530000D01*
X92987620Y-112577619D01*
X93035239Y-112672857D01*
X93082858Y-112863333D01*
X93082858Y-113101429D01*
X93035239Y-113291905D01*
X92987620Y-113387143D01*
X92940001Y-113434762D01*
X92844763Y-113482381D01*
X92749524Y-113482381D01*
X92654286Y-113434762D01*
X92606667Y-113387143D01*
X92559048Y-113291905D01*
X92511429Y-113101429D01*
X92511429Y-112863333D01*
X92559048Y-112672857D01*
X92606667Y-112577619D01*
X92654286Y-112530000D01*
X92749524Y-112482381D01*
X93463810Y-112577619D02*
X93511429Y-112530000D01*
X93606667Y-112482381D01*
X93844763Y-112482381D01*
X93940001Y-112530000D01*
X93987620Y-112577619D01*
X94035239Y-112672857D01*
X94035239Y-112768095D01*
X93987620Y-112910952D01*
X93416191Y-113482381D01*
X94035239Y-113482381D01*
D14*
X133386285Y-135055429D02*
X134402285Y-136579429D01*
X134402285Y-135055429D02*
X133386285Y-136579429D01*
X135781143Y-136579429D02*
X134910286Y-136579429D01*
X135345714Y-136579429D02*
X135345714Y-135055429D01*
X135200571Y-135273143D01*
X135055429Y-135418286D01*
X134910286Y-135490857D01*
X73623714Y-150476857D02*
X73841428Y-150549429D01*
X74204285Y-150549429D01*
X74349428Y-150476857D01*
X74421999Y-150404286D01*
X74494571Y-150259143D01*
X74494571Y-150114000D01*
X74421999Y-149968857D01*
X74349428Y-149896286D01*
X74204285Y-149823714D01*
X73913999Y-149751143D01*
X73768857Y-149678571D01*
X73696285Y-149606000D01*
X73623714Y-149460857D01*
X73623714Y-149315714D01*
X73696285Y-149170571D01*
X73768857Y-149098000D01*
X73913999Y-149025429D01*
X74276857Y-149025429D01*
X74494571Y-149098000D01*
X75365428Y-150549429D02*
X75220286Y-150476857D01*
X75147714Y-150404286D01*
X75075143Y-150259143D01*
X75075143Y-149823714D01*
X75147714Y-149678571D01*
X75220286Y-149606000D01*
X75365428Y-149533429D01*
X75583143Y-149533429D01*
X75728286Y-149606000D01*
X75800857Y-149678571D01*
X75873428Y-149823714D01*
X75873428Y-150259143D01*
X75800857Y-150404286D01*
X75728286Y-150476857D01*
X75583143Y-150549429D01*
X75365428Y-150549429D01*
X77179714Y-150476857D02*
X77034571Y-150549429D01*
X76744285Y-150549429D01*
X76599143Y-150476857D01*
X76526571Y-150404286D01*
X76454000Y-150259143D01*
X76454000Y-149823714D01*
X76526571Y-149678571D01*
X76599143Y-149606000D01*
X76744285Y-149533429D01*
X77034571Y-149533429D01*
X77179714Y-149606000D01*
X77832857Y-150549429D02*
X77832857Y-149025429D01*
X77978000Y-149968857D02*
X78413429Y-150549429D01*
X78413429Y-149533429D02*
X77832857Y-150114000D01*
X79647143Y-150476857D02*
X79502000Y-150549429D01*
X79211714Y-150549429D01*
X79066571Y-150476857D01*
X78994000Y-150331714D01*
X78994000Y-149751143D01*
X79066571Y-149606000D01*
X79211714Y-149533429D01*
X79502000Y-149533429D01*
X79647143Y-149606000D01*
X79719714Y-149751143D01*
X79719714Y-149896286D01*
X78994000Y-150041429D01*
X80155143Y-149533429D02*
X80735714Y-149533429D01*
X80372857Y-149025429D02*
X80372857Y-150331714D01*
X80445429Y-150476857D01*
X80590571Y-150549429D01*
X80735714Y-150549429D01*
X81243714Y-149968857D02*
X82404857Y-149968857D01*
X83130571Y-150549429D02*
X83130571Y-149025429D01*
X83493428Y-149025429D01*
X83711143Y-149098000D01*
X83856285Y-149243143D01*
X83928857Y-149388286D01*
X84001428Y-149678571D01*
X84001428Y-149896286D01*
X83928857Y-150186571D01*
X83856285Y-150331714D01*
X83711143Y-150476857D01*
X83493428Y-150549429D01*
X83130571Y-150549429D01*
X84654571Y-150549429D02*
X84654571Y-149025429D01*
X85380285Y-150549429D02*
X85380285Y-149025429D01*
X86251142Y-150549429D01*
X86251142Y-149025429D01*
X87629999Y-149533429D02*
X87629999Y-150549429D01*
X87267142Y-148952857D02*
X86904285Y-150041429D01*
X87847713Y-150041429D01*
X89226571Y-150549429D02*
X88355714Y-150549429D01*
X88791142Y-150549429D02*
X88791142Y-149025429D01*
X88645999Y-149243143D01*
X88500857Y-149388286D01*
X88355714Y-149460857D01*
X90532857Y-149025429D02*
X90242571Y-149025429D01*
X90097428Y-149098000D01*
X90024857Y-149170571D01*
X89879714Y-149388286D01*
X89807143Y-149678571D01*
X89807143Y-150259143D01*
X89879714Y-150404286D01*
X89952286Y-150476857D01*
X90097428Y-150549429D01*
X90387714Y-150549429D01*
X90532857Y-150476857D01*
X90605428Y-150404286D01*
X90678000Y-150259143D01*
X90678000Y-149896286D01*
X90605428Y-149751143D01*
X90532857Y-149678571D01*
X90387714Y-149606000D01*
X90097428Y-149606000D01*
X89952286Y-149678571D01*
X89879714Y-149751143D01*
X89807143Y-149896286D01*
X92129429Y-150549429D02*
X91258572Y-150549429D01*
X91694000Y-150549429D02*
X91694000Y-149025429D01*
X91548857Y-149243143D01*
X91403715Y-149388286D01*
X91258572Y-149460857D01*
X92710001Y-149170571D02*
X92782572Y-149098000D01*
X92927715Y-149025429D01*
X93290572Y-149025429D01*
X93435715Y-149098000D01*
X93508286Y-149170571D01*
X93580858Y-149315714D01*
X93580858Y-149460857D01*
X93508286Y-149678571D01*
X92637429Y-150549429D01*
X93580858Y-150549429D01*
X94234001Y-149968857D02*
X95395144Y-149968857D01*
X96193430Y-150549429D02*
X96483715Y-150549429D01*
X96628858Y-150476857D01*
X96701430Y-150404286D01*
X96846572Y-150186571D01*
X96919144Y-149896286D01*
X96919144Y-149315714D01*
X96846572Y-149170571D01*
X96774001Y-149098000D01*
X96628858Y-149025429D01*
X96338572Y-149025429D01*
X96193430Y-149098000D01*
X96120858Y-149170571D01*
X96048287Y-149315714D01*
X96048287Y-149678571D01*
X96120858Y-149823714D01*
X96193430Y-149896286D01*
X96338572Y-149968857D01*
X96628858Y-149968857D01*
X96774001Y-149896286D01*
X96846572Y-149823714D01*
X96919144Y-149678571D01*
X98225430Y-149025429D02*
X97935144Y-149025429D01*
X97790001Y-149098000D01*
X97717430Y-149170571D01*
X97572287Y-149388286D01*
X97499716Y-149678571D01*
X97499716Y-150259143D01*
X97572287Y-150404286D01*
X97644859Y-150476857D01*
X97790001Y-150549429D01*
X98080287Y-150549429D01*
X98225430Y-150476857D01*
X98298001Y-150404286D01*
X98370573Y-150259143D01*
X98370573Y-149896286D01*
X98298001Y-149751143D01*
X98225430Y-149678571D01*
X98080287Y-149606000D01*
X97790001Y-149606000D01*
X97644859Y-149678571D01*
X97572287Y-149751143D01*
X97499716Y-149896286D01*
X99023716Y-150549429D02*
X99023716Y-149025429D01*
X99604288Y-149025429D01*
X99749430Y-149098000D01*
X99822002Y-149170571D01*
X99894573Y-149315714D01*
X99894573Y-149533429D01*
X99822002Y-149678571D01*
X99749430Y-149751143D01*
X99604288Y-149823714D01*
X99023716Y-149823714D01*
X100547716Y-150549429D02*
X100547716Y-149533429D01*
X100547716Y-149025429D02*
X100475145Y-149098000D01*
X100547716Y-149170571D01*
X100620288Y-149098000D01*
X100547716Y-149025429D01*
X100547716Y-149170571D01*
X101273430Y-149533429D02*
X101273430Y-150549429D01*
X101273430Y-149678571D02*
X101346002Y-149606000D01*
X101491144Y-149533429D01*
X101708859Y-149533429D01*
X101854002Y-149606000D01*
X101926573Y-149751143D01*
X101926573Y-150549429D01*
X102652287Y-149968857D02*
X103813430Y-149968857D01*
X104394001Y-149025429D02*
X105337430Y-149025429D01*
X104829430Y-149606000D01*
X105047144Y-149606000D01*
X105192287Y-149678571D01*
X105264858Y-149751143D01*
X105337430Y-149896286D01*
X105337430Y-150259143D01*
X105264858Y-150404286D01*
X105192287Y-150476857D01*
X105047144Y-150549429D01*
X104611716Y-150549429D01*
X104466573Y-150476857D01*
X104394001Y-150404286D01*
X105990573Y-150549429D02*
X105990573Y-149533429D01*
X105990573Y-149823714D02*
X106063145Y-149678571D01*
X106135716Y-149606000D01*
X106280859Y-149533429D01*
X106426002Y-149533429D01*
X107151716Y-150549429D02*
X107006574Y-150476857D01*
X106934002Y-150404286D01*
X106861431Y-150259143D01*
X106861431Y-149823714D01*
X106934002Y-149678571D01*
X107006574Y-149606000D01*
X107151716Y-149533429D01*
X107369431Y-149533429D01*
X107514574Y-149606000D01*
X107587145Y-149678571D01*
X107659716Y-149823714D01*
X107659716Y-150259143D01*
X107587145Y-150404286D01*
X107514574Y-150476857D01*
X107369431Y-150549429D01*
X107151716Y-150549429D01*
X108167716Y-149533429D02*
X108458002Y-150549429D01*
X108748288Y-149823714D01*
X109038573Y-150549429D01*
X109328859Y-149533429D01*
D12*
X105989524Y-130627381D02*
X105418095Y-130627381D01*
X105703809Y-130627381D02*
X105703809Y-129627381D01*
X105608571Y-129770238D01*
X105513333Y-129865476D01*
X105418095Y-129913095D01*
X106989524Y-130532143D02*
X106941905Y-130579762D01*
X106799048Y-130627381D01*
X106703810Y-130627381D01*
X106560952Y-130579762D01*
X106465714Y-130484524D01*
X106418095Y-130389286D01*
X106370476Y-130198810D01*
X106370476Y-130055952D01*
X106418095Y-129865476D01*
X106465714Y-129770238D01*
X106560952Y-129675000D01*
X106703810Y-129627381D01*
X106799048Y-129627381D01*
X106941905Y-129675000D01*
X106989524Y-129722619D01*
X107941905Y-130627381D02*
X107370476Y-130627381D01*
X107656190Y-130627381D02*
X107656190Y-129627381D01*
X107560952Y-129770238D01*
X107465714Y-129865476D01*
X107370476Y-129913095D01*
X105560953Y-112212381D02*
X104989524Y-112212381D01*
X105275238Y-112212381D02*
X105275238Y-111212381D01*
X105180000Y-111355238D01*
X105084762Y-111450476D01*
X104989524Y-111498095D01*
X105846667Y-111212381D02*
X106180000Y-112212381D01*
X106513334Y-111212381D01*
X106846667Y-112212381D02*
X106846667Y-111212381D01*
X107084762Y-111212381D01*
X107227620Y-111260000D01*
X107322858Y-111355238D01*
X107370477Y-111450476D01*
X107418096Y-111640952D01*
X107418096Y-111783810D01*
X107370477Y-111974286D01*
X107322858Y-112069524D01*
X107227620Y-112164762D01*
X107084762Y-112212381D01*
X106846667Y-112212381D01*
X108370477Y-112212381D02*
X107799048Y-112212381D01*
X108084762Y-112212381D02*
X108084762Y-111212381D01*
X107989524Y-111355238D01*
X107894286Y-111450476D01*
X107799048Y-111498095D01*
X102878095Y-118292619D02*
X102925714Y-118245000D01*
X103020952Y-118197381D01*
X103259048Y-118197381D01*
X103354286Y-118245000D01*
X103401905Y-118292619D01*
X103449524Y-118387857D01*
X103449524Y-118483095D01*
X103401905Y-118625952D01*
X102830476Y-119197381D01*
X103449524Y-119197381D01*
X104449524Y-119102143D02*
X104401905Y-119149762D01*
X104259048Y-119197381D01*
X104163810Y-119197381D01*
X104020952Y-119149762D01*
X103925714Y-119054524D01*
X103878095Y-118959286D01*
X103830476Y-118768810D01*
X103830476Y-118625952D01*
X103878095Y-118435476D01*
X103925714Y-118340238D01*
X104020952Y-118245000D01*
X104163810Y-118197381D01*
X104259048Y-118197381D01*
X104401905Y-118245000D01*
X104449524Y-118292619D01*
X105401905Y-119197381D02*
X104830476Y-119197381D01*
X105116190Y-119197381D02*
X105116190Y-118197381D01*
X105020952Y-118340238D01*
X104925714Y-118435476D01*
X104830476Y-118483095D01*
X104989524Y-108767619D02*
X105037143Y-108720000D01*
X105132381Y-108672381D01*
X105370477Y-108672381D01*
X105465715Y-108720000D01*
X105513334Y-108767619D01*
X105560953Y-108862857D01*
X105560953Y-108958095D01*
X105513334Y-109100952D01*
X104941905Y-109672381D01*
X105560953Y-109672381D01*
X105846667Y-108672381D02*
X106180000Y-109672381D01*
X106513334Y-108672381D01*
X106846667Y-109672381D02*
X106846667Y-108672381D01*
X107084762Y-108672381D01*
X107227620Y-108720000D01*
X107322858Y-108815238D01*
X107370477Y-108910476D01*
X107418096Y-109100952D01*
X107418096Y-109243810D01*
X107370477Y-109434286D01*
X107322858Y-109529524D01*
X107227620Y-109624762D01*
X107084762Y-109672381D01*
X106846667Y-109672381D01*
X108370477Y-109672381D02*
X107799048Y-109672381D01*
X108084762Y-109672381D02*
X108084762Y-108672381D01*
X107989524Y-108815238D01*
X107894286Y-108910476D01*
X107799048Y-108958095D01*
X77430476Y-129627381D02*
X78049524Y-129627381D01*
X77716190Y-130008333D01*
X77859048Y-130008333D01*
X77954286Y-130055952D01*
X78001905Y-130103571D01*
X78049524Y-130198810D01*
X78049524Y-130436905D01*
X78001905Y-130532143D01*
X77954286Y-130579762D01*
X77859048Y-130627381D01*
X77573333Y-130627381D01*
X77478095Y-130579762D01*
X77430476Y-130532143D01*
X79049524Y-130532143D02*
X79001905Y-130579762D01*
X78859048Y-130627381D01*
X78763810Y-130627381D01*
X78620952Y-130579762D01*
X78525714Y-130484524D01*
X78478095Y-130389286D01*
X78430476Y-130198810D01*
X78430476Y-130055952D01*
X78478095Y-129865476D01*
X78525714Y-129770238D01*
X78620952Y-129675000D01*
X78763810Y-129627381D01*
X78859048Y-129627381D01*
X79001905Y-129675000D01*
X79049524Y-129722619D01*
X80001905Y-130627381D02*
X79430476Y-130627381D01*
X79716190Y-130627381D02*
X79716190Y-129627381D01*
X79620952Y-129770238D01*
X79525714Y-129865476D01*
X79430476Y-129913095D01*
X103401905Y-120467381D02*
X103401905Y-119467381D01*
X103640000Y-119467381D01*
X103782858Y-119515000D01*
X103878096Y-119610238D01*
X103925715Y-119705476D01*
X103973334Y-119895952D01*
X103973334Y-120038810D01*
X103925715Y-120229286D01*
X103878096Y-120324524D01*
X103782858Y-120419762D01*
X103640000Y-120467381D01*
X103401905Y-120467381D01*
X104925715Y-120467381D02*
X104354286Y-120467381D01*
X104640000Y-120467381D02*
X104640000Y-119467381D01*
X104544762Y-119610238D01*
X104449524Y-119705476D01*
X104354286Y-119753095D01*
X89590952Y-123912381D02*
X90257619Y-123912381D01*
X89829047Y-124912381D01*
X91067143Y-124245714D02*
X91067143Y-124912381D01*
X90829047Y-123864762D02*
X90590952Y-124579048D01*
X91210000Y-124579048D01*
X92067143Y-124912381D02*
X91590952Y-124912381D01*
X91590952Y-123912381D01*
X92352857Y-124864762D02*
X92495714Y-124912381D01*
X92733810Y-124912381D01*
X92829048Y-124864762D01*
X92876667Y-124817143D01*
X92924286Y-124721905D01*
X92924286Y-124626667D01*
X92876667Y-124531429D01*
X92829048Y-124483810D01*
X92733810Y-124436190D01*
X92543333Y-124388571D01*
X92448095Y-124340952D01*
X92400476Y-124293333D01*
X92352857Y-124198095D01*
X92352857Y-124102857D01*
X92400476Y-124007619D01*
X92448095Y-123960000D01*
X92543333Y-123912381D01*
X92781429Y-123912381D01*
X92924286Y-123960000D01*
X93876667Y-124912381D02*
X93305238Y-124912381D01*
X93590952Y-124912381D02*
X93590952Y-123912381D01*
X93495714Y-124055238D01*
X93400476Y-124150476D01*
X93305238Y-124198095D01*
X94210000Y-123912381D02*
X94829048Y-123912381D01*
X94495714Y-124293333D01*
X94638572Y-124293333D01*
X94733810Y-124340952D01*
X94781429Y-124388571D01*
X94829048Y-124483810D01*
X94829048Y-124721905D01*
X94781429Y-124817143D01*
X94733810Y-124864762D01*
X94638572Y-124912381D01*
X94352857Y-124912381D01*
X94257619Y-124864762D01*
X94210000Y-124817143D01*
X95162381Y-123912381D02*
X95781429Y-123912381D01*
X95448095Y-124293333D01*
X95590953Y-124293333D01*
X95686191Y-124340952D01*
X95733810Y-124388571D01*
X95781429Y-124483810D01*
X95781429Y-124721905D01*
X95733810Y-124817143D01*
X95686191Y-124864762D01*
X95590953Y-124912381D01*
X95305238Y-124912381D01*
X95210000Y-124864762D01*
X95162381Y-124817143D01*
X72921905Y-109037381D02*
X72921905Y-108037381D01*
X73160000Y-108037381D01*
X73302858Y-108085000D01*
X73398096Y-108180238D01*
X73445715Y-108275476D01*
X73493334Y-108465952D01*
X73493334Y-108608810D01*
X73445715Y-108799286D01*
X73398096Y-108894524D01*
X73302858Y-108989762D01*
X73160000Y-109037381D01*
X72921905Y-109037381D01*
X73826667Y-108037381D02*
X74445715Y-108037381D01*
X74112381Y-108418333D01*
X74255239Y-108418333D01*
X74350477Y-108465952D01*
X74398096Y-108513571D01*
X74445715Y-108608810D01*
X74445715Y-108846905D01*
X74398096Y-108942143D01*
X74350477Y-108989762D01*
X74255239Y-109037381D01*
X73969524Y-109037381D01*
X73874286Y-108989762D01*
X73826667Y-108942143D01*
X58721905Y-112482381D02*
X59388572Y-112482381D01*
X58960000Y-113482381D01*
X59721905Y-112577619D02*
X59769524Y-112530000D01*
X59864762Y-112482381D01*
X60102858Y-112482381D01*
X60198096Y-112530000D01*
X60245715Y-112577619D01*
X60293334Y-112672857D01*
X60293334Y-112768095D01*
X60245715Y-112910952D01*
X59674286Y-113482381D01*
X60293334Y-113482381D01*
X61150477Y-112815714D02*
X61150477Y-113482381D01*
X60912381Y-112434762D02*
X60674286Y-113149048D01*
X61293334Y-113149048D01*
X61626667Y-112577619D02*
X61674286Y-112530000D01*
X61769524Y-112482381D01*
X62007620Y-112482381D01*
X62102858Y-112530000D01*
X62150477Y-112577619D01*
X62198096Y-112672857D01*
X62198096Y-112768095D01*
X62150477Y-112910952D01*
X61579048Y-113482381D01*
X62198096Y-113482381D01*
X63150477Y-113482381D02*
X62579048Y-113482381D01*
X62864762Y-113482381D02*
X62864762Y-112482381D01*
X62769524Y-112625238D01*
X62674286Y-112720476D01*
X62579048Y-112768095D01*
X75461905Y-120467381D02*
X75461905Y-119467381D01*
X75700000Y-119467381D01*
X75842858Y-119515000D01*
X75938096Y-119610238D01*
X75985715Y-119705476D01*
X76033334Y-119895952D01*
X76033334Y-120038810D01*
X75985715Y-120229286D01*
X75938096Y-120324524D01*
X75842858Y-120419762D01*
X75700000Y-120467381D01*
X75461905Y-120467381D01*
X76890477Y-119800714D02*
X76890477Y-120467381D01*
X76652381Y-119419762D02*
X76414286Y-120134048D01*
X77033334Y-120134048D01*
X59110952Y-123912381D02*
X59777619Y-123912381D01*
X59349047Y-124912381D01*
X60587143Y-124245714D02*
X60587143Y-124912381D01*
X60349047Y-123864762D02*
X60110952Y-124579048D01*
X60730000Y-124579048D01*
X61587143Y-124912381D02*
X61110952Y-124912381D01*
X61110952Y-123912381D01*
X61872857Y-124864762D02*
X62015714Y-124912381D01*
X62253810Y-124912381D01*
X62349048Y-124864762D01*
X62396667Y-124817143D01*
X62444286Y-124721905D01*
X62444286Y-124626667D01*
X62396667Y-124531429D01*
X62349048Y-124483810D01*
X62253810Y-124436190D01*
X62063333Y-124388571D01*
X61968095Y-124340952D01*
X61920476Y-124293333D01*
X61872857Y-124198095D01*
X61872857Y-124102857D01*
X61920476Y-124007619D01*
X61968095Y-123960000D01*
X62063333Y-123912381D01*
X62301429Y-123912381D01*
X62444286Y-123960000D01*
X62825238Y-124007619D02*
X62872857Y-123960000D01*
X62968095Y-123912381D01*
X63206191Y-123912381D01*
X63301429Y-123960000D01*
X63349048Y-124007619D01*
X63396667Y-124102857D01*
X63396667Y-124198095D01*
X63349048Y-124340952D01*
X62777619Y-124912381D01*
X63396667Y-124912381D01*
X64253810Y-124245714D02*
X64253810Y-124912381D01*
X64015714Y-123864762D02*
X63777619Y-124579048D01*
X64396667Y-124579048D01*
X65253810Y-123912381D02*
X64777619Y-123912381D01*
X64730000Y-124388571D01*
X64777619Y-124340952D01*
X64872857Y-124293333D01*
X65110953Y-124293333D01*
X65206191Y-124340952D01*
X65253810Y-124388571D01*
X65301429Y-124483810D01*
X65301429Y-124721905D01*
X65253810Y-124817143D01*
X65206191Y-124864762D01*
X65110953Y-124912381D01*
X64872857Y-124912381D01*
X64777619Y-124864762D01*
X64730000Y-124817143D01*
X78049524Y-119197381D02*
X77478095Y-119197381D01*
X77763809Y-119197381D02*
X77763809Y-118197381D01*
X77668571Y-118340238D01*
X77573333Y-118435476D01*
X77478095Y-118483095D01*
X79049524Y-119197381D02*
X78716190Y-118721190D01*
X78478095Y-119197381D02*
X78478095Y-118197381D01*
X78859048Y-118197381D01*
X78954286Y-118245000D01*
X79001905Y-118292619D01*
X79049524Y-118387857D01*
X79049524Y-118530714D01*
X79001905Y-118625952D01*
X78954286Y-118673571D01*
X78859048Y-118721190D01*
X78478095Y-118721190D01*
X80001905Y-119197381D02*
X79430476Y-119197381D01*
X79716190Y-119197381D02*
X79716190Y-118197381D01*
X79620952Y-118340238D01*
X79525714Y-118435476D01*
X79430476Y-118483095D01*
X73668095Y-118292619D02*
X73715714Y-118245000D01*
X73810952Y-118197381D01*
X74049048Y-118197381D01*
X74144286Y-118245000D01*
X74191905Y-118292619D01*
X74239524Y-118387857D01*
X74239524Y-118483095D01*
X74191905Y-118625952D01*
X73620476Y-119197381D01*
X74239524Y-119197381D01*
X75239524Y-119197381D02*
X74906190Y-118721190D01*
X74668095Y-119197381D02*
X74668095Y-118197381D01*
X75049048Y-118197381D01*
X75144286Y-118245000D01*
X75191905Y-118292619D01*
X75239524Y-118387857D01*
X75239524Y-118530714D01*
X75191905Y-118625952D01*
X75144286Y-118673571D01*
X75049048Y-118721190D01*
X74668095Y-118721190D01*
X76191905Y-119197381D02*
X75620476Y-119197381D01*
X75906190Y-119197381D02*
X75906190Y-118197381D01*
X75810952Y-118340238D01*
X75715714Y-118435476D01*
X75620476Y-118483095D01*
X128754286Y-130738571D02*
X128897143Y-130786190D01*
X128944762Y-130833810D01*
X128992381Y-130929048D01*
X128992381Y-131071905D01*
X128944762Y-131167143D01*
X128897143Y-131214762D01*
X128801905Y-131262381D01*
X128420952Y-131262381D01*
X128420952Y-130262381D01*
X128754286Y-130262381D01*
X128849524Y-130310000D01*
X128897143Y-130357619D01*
X128944762Y-130452857D01*
X128944762Y-130548095D01*
X128897143Y-130643333D01*
X128849524Y-130690952D01*
X128754286Y-130738571D01*
X128420952Y-130738571D01*
X129278095Y-130262381D02*
X129849524Y-130262381D01*
X129563809Y-131262381D02*
X129563809Y-130262381D01*
X130706667Y-131262381D02*
X130135238Y-131262381D01*
X130420952Y-131262381D02*
X130420952Y-130262381D01*
X130325714Y-130405238D01*
X130230476Y-130500476D01*
X130135238Y-130548095D01*
X45053334Y-132552381D02*
X44720000Y-132076190D01*
X44481905Y-132552381D02*
X44481905Y-131552381D01*
X44862858Y-131552381D01*
X44958096Y-131600000D01*
X45005715Y-131647619D01*
X45053334Y-131742857D01*
X45053334Y-131885714D01*
X45005715Y-131980952D01*
X44958096Y-132028571D01*
X44862858Y-132076190D01*
X44481905Y-132076190D01*
X46053334Y-132552381D02*
X45720000Y-132076190D01*
X45481905Y-132552381D02*
X45481905Y-131552381D01*
X45862858Y-131552381D01*
X45958096Y-131600000D01*
X46005715Y-131647619D01*
X46053334Y-131742857D01*
X46053334Y-131885714D01*
X46005715Y-131980952D01*
X45958096Y-132028571D01*
X45862858Y-132076190D01*
X45481905Y-132076190D01*
X47005715Y-132552381D02*
X46434286Y-132552381D01*
X46720000Y-132552381D02*
X46720000Y-131552381D01*
X46624762Y-131695238D01*
X46529524Y-131790476D01*
X46434286Y-131838095D01*
M02*
