M48
;DRILL file {KiCad 4.0.1-stable} date 05.07.2016 19:52:19
;FORMAT={-:-/ absolute / metric / decimal}
FMAT,2
METRIC,TZ
T1C0.350
T2C0.800
T3C1.016
T4C2.901
%
G90
G05
M71
T1
X41.275Y-106.68
X41.275Y-115.57
X41.275Y-124.46
X41.275Y-133.35
X41.275Y-142.24
X50.8Y-112.395
X55.88Y-112.395
X80.645Y-109.22
X81.915Y-130.81
X83.82Y-123.825
X106.045Y-131.445
X112.395Y-125.095
X112.395Y-131.445
X118.11Y-125.095
X118.11Y-131.445
X123.825Y-125.095
X123.825Y-131.445
X141.605Y-106.68
X141.605Y-115.57
X141.605Y-124.46
X141.605Y-133.35
X141.605Y-142.24
T2
X50.8Y-109.22
X50.8Y-116.84
X50.8Y-120.65
X50.8Y-128.27
X52.07Y-134.62
X52.07Y-137.16
X52.07Y-139.7
X53.34Y-109.22
X53.34Y-116.84
X53.34Y-120.65
X53.34Y-128.27
X54.61Y-134.62
X54.61Y-137.16
X54.61Y-139.7
X55.88Y-109.22
X55.88Y-116.84
X55.88Y-120.65
X55.88Y-128.27
X57.15Y-134.62
X57.15Y-137.16
X57.15Y-139.7
X58.42Y-109.22
X58.42Y-116.84
X58.42Y-120.65
X58.42Y-128.27
X59.69Y-134.62
X59.69Y-137.16
X59.69Y-139.7
X60.96Y-109.22
X60.96Y-116.84
X60.96Y-120.65
X60.96Y-128.27
X62.23Y-134.62
X62.23Y-137.16
X62.23Y-139.7
X63.5Y-109.22
X63.5Y-116.84
X63.5Y-120.65
X63.5Y-128.27
X64.77Y-134.62
X64.77Y-137.16
X64.77Y-139.7
X66.04Y-109.22
X66.04Y-116.84
X66.04Y-120.65
X66.04Y-128.27
X67.31Y-134.62
X67.31Y-137.16
X67.31Y-139.7
X68.58Y-109.22
X68.58Y-116.84
X68.58Y-120.65
X68.58Y-128.27
X69.85Y-134.62
X69.85Y-137.16
X69.85Y-139.7
X71.12Y-109.22
X71.12Y-116.84
X71.12Y-120.65
X71.12Y-128.27
X72.39Y-134.62
X72.39Y-137.16
X72.39Y-139.7
X73.66Y-120.65
X73.66Y-128.27
X74.93Y-134.62
X74.93Y-137.16
X74.93Y-139.7
X75.565Y-109.22
X75.565Y-116.84
X77.47Y-134.62
X77.47Y-137.16
X77.47Y-139.7
X78.105Y-109.22
X78.105Y-116.84
X78.74Y-125.73
X78.74Y-128.23
X80.01Y-134.62
X80.01Y-137.16
X80.01Y-139.7
X82.55Y-134.62
X82.55Y-137.16
X82.55Y-139.7
X83.82Y-109.22
X83.82Y-116.84
X83.82Y-120.65
X83.82Y-128.27
X85.09Y-134.62
X85.09Y-137.16
X85.09Y-139.7
X86.36Y-109.22
X86.36Y-116.84
X86.36Y-120.65
X86.36Y-128.27
X87.63Y-134.62
X87.63Y-137.16
X87.63Y-139.7
X88.9Y-109.22
X88.9Y-116.84
X88.9Y-120.65
X88.9Y-128.27
X90.17Y-134.62
X90.17Y-137.16
X90.17Y-139.7
X91.44Y-109.22
X91.44Y-116.84
X91.44Y-120.65
X91.44Y-128.27
X92.71Y-134.62
X92.71Y-137.16
X92.71Y-139.7
X93.98Y-109.22
X93.98Y-116.84
X93.98Y-120.65
X93.98Y-128.27
X95.25Y-134.62
X95.25Y-137.16
X95.25Y-139.7
X96.52Y-109.22
X96.52Y-116.84
X96.52Y-120.65
X96.52Y-128.27
X97.79Y-134.62
X97.79Y-137.16
X97.79Y-139.7
X99.06Y-109.22
X99.06Y-116.84
X99.06Y-120.65
X99.06Y-128.27
X100.33Y-134.62
X100.33Y-137.16
X100.33Y-139.7
X101.6Y-120.65
X101.6Y-128.27
X102.87Y-134.62
X102.87Y-137.16
X102.87Y-139.7
X104.14Y-114.34
X104.14Y-116.84
X105.41Y-134.62
X105.41Y-137.16
X105.41Y-139.7
X106.68Y-125.77
X106.68Y-128.27
X107.95Y-134.62
X107.95Y-137.16
X107.95Y-139.7
X109.22Y-109.22
X109.22Y-111.76
X110.49Y-134.62
X110.49Y-137.16
X110.49Y-139.7
X113.03Y-134.62
X113.03Y-137.16
X113.03Y-139.7
X115.57Y-134.62
X115.57Y-137.16
X115.57Y-139.7
X116.84Y-109.22
X116.84Y-111.76
X118.11Y-134.62
X118.11Y-137.16
X118.11Y-139.7
X120.65Y-134.62
X120.65Y-137.16
X120.65Y-139.7
X123.19Y-134.62
X123.19Y-137.16
X123.19Y-139.7
X125.73Y-134.62
X125.73Y-137.16
X125.73Y-139.7
X128.27Y-134.62
X128.27Y-137.16
X128.27Y-139.7
X130.81Y-134.62
X130.81Y-137.16
X130.81Y-139.7
T3
X45.72Y-109.22
X45.72Y-111.76
X45.72Y-114.3
X45.72Y-116.84
X45.72Y-119.38
X45.72Y-121.92
X45.72Y-124.46
X45.72Y-127.
X114.3Y-118.11
X137.16Y-118.11
T4
X46.99Y-142.24
X135.89Y-142.24
T0
M30
