%FSLAX45Y45*%
G04 Gerber Fmt 4.5, Leading zero omitted, Abs format (unit mm)*
G04 Created by KiCad (PCBNEW 4.0.1-stable) date 05.07.2016 19:52:19*
%MOMM*%
G01*
G04 APERTURE LIST*
%ADD10C,0.127000*%
%ADD11C,0.150000*%
%ADD12C,0.200000*%
%ADD13C,0.300000*%
G04 APERTURE END LIST*
D10*
D11*
X3810000Y-14478000D02*
X3810000Y-10414000D01*
X14478000Y-14478000D02*
X3810000Y-14478000D01*
X14478000Y-10414000D02*
X14478000Y-14478000D01*
X3810000Y-10414000D02*
X14478000Y-10414000D01*
D12*
X4110000Y-10650500D02*
X4145000Y-10685500D01*
X4145000Y-10650500D02*
X4110000Y-10685500D01*
X4110000Y-11539500D02*
X4145000Y-11574500D01*
X4145000Y-11539500D02*
X4110000Y-11574500D01*
X4110000Y-12428500D02*
X4145000Y-12463500D01*
X4145000Y-12428500D02*
X4110000Y-12463500D01*
X4110000Y-13317500D02*
X4145000Y-13352500D01*
X4145000Y-13317500D02*
X4110000Y-13352500D01*
X4110000Y-14206500D02*
X4145000Y-14241500D01*
X4145000Y-14206500D02*
X4110000Y-14241500D01*
X5062500Y-11222000D02*
X5097500Y-11257000D01*
X5097500Y-11222000D02*
X5062500Y-11257000D01*
X5570500Y-11222000D02*
X5605500Y-11257000D01*
X5605500Y-11222000D02*
X5570500Y-11257000D01*
X8047000Y-10904500D02*
X8082000Y-10939500D01*
X8082000Y-10904500D02*
X8047000Y-10939500D01*
X8174000Y-13063500D02*
X8209000Y-13098500D01*
X8209000Y-13063500D02*
X8174000Y-13098500D01*
X8364500Y-12365000D02*
X8399500Y-12400000D01*
X8399500Y-12365000D02*
X8364500Y-12400000D01*
X10587000Y-13127000D02*
X10622000Y-13162000D01*
X10622000Y-13127000D02*
X10587000Y-13162000D01*
X11222000Y-12492000D02*
X11257000Y-12527000D01*
X11257000Y-12492000D02*
X11222000Y-12527000D01*
X11222000Y-13127000D02*
X11257000Y-13162000D01*
X11257000Y-13127000D02*
X11222000Y-13162000D01*
X11793500Y-12492000D02*
X11828500Y-12527000D01*
X11828500Y-12492000D02*
X11793500Y-12527000D01*
X11793500Y-13127000D02*
X11828500Y-13162000D01*
X11828500Y-13127000D02*
X11793500Y-13162000D01*
X12365000Y-12492000D02*
X12400000Y-12527000D01*
X12400000Y-12492000D02*
X12365000Y-12527000D01*
X12365000Y-13127000D02*
X12400000Y-13162000D01*
X12400000Y-13127000D02*
X12365000Y-13162000D01*
X14143000Y-10650500D02*
X14178000Y-10685500D01*
X14178000Y-10650500D02*
X14143000Y-10685500D01*
X14143000Y-11539500D02*
X14178000Y-11574500D01*
X14178000Y-11539500D02*
X14143000Y-11574500D01*
X14143000Y-12428500D02*
X14178000Y-12463500D01*
X14178000Y-12428500D02*
X14143000Y-12463500D01*
X14143000Y-13317500D02*
X14178000Y-13352500D01*
X14178000Y-13317500D02*
X14143000Y-13352500D01*
X14143000Y-14206500D02*
X14178000Y-14241500D01*
X14178000Y-14206500D02*
X14143000Y-14241500D01*
X5120000Y-10922000D02*
G75*
G03X5120000Y-10922000I-40000J0D01*
G01*
X5120000Y-11684000D02*
G75*
G03X5120000Y-11684000I-40000J0D01*
G01*
X5120000Y-12065000D02*
G75*
G03X5120000Y-12065000I-40000J0D01*
G01*
X5120000Y-12827000D02*
G75*
G03X5120000Y-12827000I-40000J0D01*
G01*
X5247000Y-13462000D02*
G75*
G03X5247000Y-13462000I-40000J0D01*
G01*
X5247000Y-13716000D02*
G75*
G03X5247000Y-13716000I-40000J0D01*
G01*
X5247000Y-13970000D02*
G75*
G03X5247000Y-13970000I-40000J0D01*
G01*
X5374000Y-10922000D02*
G75*
G03X5374000Y-10922000I-40000J0D01*
G01*
X5374000Y-11684000D02*
G75*
G03X5374000Y-11684000I-40000J0D01*
G01*
X5374000Y-12065000D02*
G75*
G03X5374000Y-12065000I-40000J0D01*
G01*
X5374000Y-12827000D02*
G75*
G03X5374000Y-12827000I-40000J0D01*
G01*
X5501000Y-13462000D02*
G75*
G03X5501000Y-13462000I-40000J0D01*
G01*
X5501000Y-13716000D02*
G75*
G03X5501000Y-13716000I-40000J0D01*
G01*
X5501000Y-13970000D02*
G75*
G03X5501000Y-13970000I-40000J0D01*
G01*
X5628000Y-10922000D02*
G75*
G03X5628000Y-10922000I-40000J0D01*
G01*
X5628000Y-11684000D02*
G75*
G03X5628000Y-11684000I-40000J0D01*
G01*
X5628000Y-12065000D02*
G75*
G03X5628000Y-12065000I-40000J0D01*
G01*
X5628000Y-12827000D02*
G75*
G03X5628000Y-12827000I-40000J0D01*
G01*
X5755000Y-13462000D02*
G75*
G03X5755000Y-13462000I-40000J0D01*
G01*
X5755000Y-13716000D02*
G75*
G03X5755000Y-13716000I-40000J0D01*
G01*
X5755000Y-13970000D02*
G75*
G03X5755000Y-13970000I-40000J0D01*
G01*
X5882000Y-10922000D02*
G75*
G03X5882000Y-10922000I-40000J0D01*
G01*
X5882000Y-11684000D02*
G75*
G03X5882000Y-11684000I-40000J0D01*
G01*
X5882000Y-12065000D02*
G75*
G03X5882000Y-12065000I-40000J0D01*
G01*
X5882000Y-12827000D02*
G75*
G03X5882000Y-12827000I-40000J0D01*
G01*
X6009000Y-13462000D02*
G75*
G03X6009000Y-13462000I-40000J0D01*
G01*
X6009000Y-13716000D02*
G75*
G03X6009000Y-13716000I-40000J0D01*
G01*
X6009000Y-13970000D02*
G75*
G03X6009000Y-13970000I-40000J0D01*
G01*
X6136000Y-10922000D02*
G75*
G03X6136000Y-10922000I-40000J0D01*
G01*
X6136000Y-11684000D02*
G75*
G03X6136000Y-11684000I-40000J0D01*
G01*
X6136000Y-12065000D02*
G75*
G03X6136000Y-12065000I-40000J0D01*
G01*
X6136000Y-12827000D02*
G75*
G03X6136000Y-12827000I-40000J0D01*
G01*
X6263000Y-13462000D02*
G75*
G03X6263000Y-13462000I-40000J0D01*
G01*
X6263000Y-13716000D02*
G75*
G03X6263000Y-13716000I-40000J0D01*
G01*
X6263000Y-13970000D02*
G75*
G03X6263000Y-13970000I-40000J0D01*
G01*
X6390000Y-10922000D02*
G75*
G03X6390000Y-10922000I-40000J0D01*
G01*
X6390000Y-11684000D02*
G75*
G03X6390000Y-11684000I-40000J0D01*
G01*
X6390000Y-12065000D02*
G75*
G03X6390000Y-12065000I-40000J0D01*
G01*
X6390000Y-12827000D02*
G75*
G03X6390000Y-12827000I-40000J0D01*
G01*
X6517000Y-13462000D02*
G75*
G03X6517000Y-13462000I-40000J0D01*
G01*
X6517000Y-13716000D02*
G75*
G03X6517000Y-13716000I-40000J0D01*
G01*
X6517000Y-13970000D02*
G75*
G03X6517000Y-13970000I-40000J0D01*
G01*
X6644000Y-10922000D02*
G75*
G03X6644000Y-10922000I-40000J0D01*
G01*
X6644000Y-11684000D02*
G75*
G03X6644000Y-11684000I-40000J0D01*
G01*
X6644000Y-12065000D02*
G75*
G03X6644000Y-12065000I-40000J0D01*
G01*
X6644000Y-12827000D02*
G75*
G03X6644000Y-12827000I-40000J0D01*
G01*
X6771000Y-13462000D02*
G75*
G03X6771000Y-13462000I-40000J0D01*
G01*
X6771000Y-13716000D02*
G75*
G03X6771000Y-13716000I-40000J0D01*
G01*
X6771000Y-13970000D02*
G75*
G03X6771000Y-13970000I-40000J0D01*
G01*
X6898000Y-10922000D02*
G75*
G03X6898000Y-10922000I-40000J0D01*
G01*
X6898000Y-11684000D02*
G75*
G03X6898000Y-11684000I-40000J0D01*
G01*
X6898000Y-12065000D02*
G75*
G03X6898000Y-12065000I-40000J0D01*
G01*
X6898000Y-12827000D02*
G75*
G03X6898000Y-12827000I-40000J0D01*
G01*
X7025000Y-13462000D02*
G75*
G03X7025000Y-13462000I-40000J0D01*
G01*
X7025000Y-13716000D02*
G75*
G03X7025000Y-13716000I-40000J0D01*
G01*
X7025000Y-13970000D02*
G75*
G03X7025000Y-13970000I-40000J0D01*
G01*
X7152000Y-10922000D02*
G75*
G03X7152000Y-10922000I-40000J0D01*
G01*
X7152000Y-11684000D02*
G75*
G03X7152000Y-11684000I-40000J0D01*
G01*
X7152000Y-12065000D02*
G75*
G03X7152000Y-12065000I-40000J0D01*
G01*
X7152000Y-12827000D02*
G75*
G03X7152000Y-12827000I-40000J0D01*
G01*
X7279000Y-13462000D02*
G75*
G03X7279000Y-13462000I-40000J0D01*
G01*
X7279000Y-13716000D02*
G75*
G03X7279000Y-13716000I-40000J0D01*
G01*
X7279000Y-13970000D02*
G75*
G03X7279000Y-13970000I-40000J0D01*
G01*
X7406000Y-12065000D02*
G75*
G03X7406000Y-12065000I-40000J0D01*
G01*
X7406000Y-12827000D02*
G75*
G03X7406000Y-12827000I-40000J0D01*
G01*
X7533000Y-13462000D02*
G75*
G03X7533000Y-13462000I-40000J0D01*
G01*
X7533000Y-13716000D02*
G75*
G03X7533000Y-13716000I-40000J0D01*
G01*
X7533000Y-13970000D02*
G75*
G03X7533000Y-13970000I-40000J0D01*
G01*
X7596500Y-10922000D02*
G75*
G03X7596500Y-10922000I-40000J0D01*
G01*
X7596500Y-11684000D02*
G75*
G03X7596500Y-11684000I-40000J0D01*
G01*
X7787000Y-13462000D02*
G75*
G03X7787000Y-13462000I-40000J0D01*
G01*
X7787000Y-13716000D02*
G75*
G03X7787000Y-13716000I-40000J0D01*
G01*
X7787000Y-13970000D02*
G75*
G03X7787000Y-13970000I-40000J0D01*
G01*
X7850500Y-10922000D02*
G75*
G03X7850500Y-10922000I-40000J0D01*
G01*
X7850500Y-11684000D02*
G75*
G03X7850500Y-11684000I-40000J0D01*
G01*
X7914000Y-12573000D02*
G75*
G03X7914000Y-12573000I-40000J0D01*
G01*
X7914000Y-12823000D02*
G75*
G03X7914000Y-12823000I-40000J0D01*
G01*
X8041000Y-13462000D02*
G75*
G03X8041000Y-13462000I-40000J0D01*
G01*
X8041000Y-13716000D02*
G75*
G03X8041000Y-13716000I-40000J0D01*
G01*
X8041000Y-13970000D02*
G75*
G03X8041000Y-13970000I-40000J0D01*
G01*
X8295000Y-13462000D02*
G75*
G03X8295000Y-13462000I-40000J0D01*
G01*
X8295000Y-13716000D02*
G75*
G03X8295000Y-13716000I-40000J0D01*
G01*
X8295000Y-13970000D02*
G75*
G03X8295000Y-13970000I-40000J0D01*
G01*
X8422000Y-10922000D02*
G75*
G03X8422000Y-10922000I-40000J0D01*
G01*
X8422000Y-11684000D02*
G75*
G03X8422000Y-11684000I-40000J0D01*
G01*
X8422000Y-12065000D02*
G75*
G03X8422000Y-12065000I-40000J0D01*
G01*
X8422000Y-12827000D02*
G75*
G03X8422000Y-12827000I-40000J0D01*
G01*
X8549000Y-13462000D02*
G75*
G03X8549000Y-13462000I-40000J0D01*
G01*
X8549000Y-13716000D02*
G75*
G03X8549000Y-13716000I-40000J0D01*
G01*
X8549000Y-13970000D02*
G75*
G03X8549000Y-13970000I-40000J0D01*
G01*
X8676000Y-10922000D02*
G75*
G03X8676000Y-10922000I-40000J0D01*
G01*
X8676000Y-11684000D02*
G75*
G03X8676000Y-11684000I-40000J0D01*
G01*
X8676000Y-12065000D02*
G75*
G03X8676000Y-12065000I-40000J0D01*
G01*
X8676000Y-12827000D02*
G75*
G03X8676000Y-12827000I-40000J0D01*
G01*
X8803000Y-13462000D02*
G75*
G03X8803000Y-13462000I-40000J0D01*
G01*
X8803000Y-13716000D02*
G75*
G03X8803000Y-13716000I-40000J0D01*
G01*
X8803000Y-13970000D02*
G75*
G03X8803000Y-13970000I-40000J0D01*
G01*
X8930000Y-10922000D02*
G75*
G03X8930000Y-10922000I-40000J0D01*
G01*
X8930000Y-11684000D02*
G75*
G03X8930000Y-11684000I-40000J0D01*
G01*
X8930000Y-12065000D02*
G75*
G03X8930000Y-12065000I-40000J0D01*
G01*
X8930000Y-12827000D02*
G75*
G03X8930000Y-12827000I-40000J0D01*
G01*
X9057000Y-13462000D02*
G75*
G03X9057000Y-13462000I-40000J0D01*
G01*
X9057000Y-13716000D02*
G75*
G03X9057000Y-13716000I-40000J0D01*
G01*
X9057000Y-13970000D02*
G75*
G03X9057000Y-13970000I-40000J0D01*
G01*
X9184000Y-10922000D02*
G75*
G03X9184000Y-10922000I-40000J0D01*
G01*
X9184000Y-11684000D02*
G75*
G03X9184000Y-11684000I-40000J0D01*
G01*
X9184000Y-12065000D02*
G75*
G03X9184000Y-12065000I-40000J0D01*
G01*
X9184000Y-12827000D02*
G75*
G03X9184000Y-12827000I-40000J0D01*
G01*
X9311000Y-13462000D02*
G75*
G03X9311000Y-13462000I-40000J0D01*
G01*
X9311000Y-13716000D02*
G75*
G03X9311000Y-13716000I-40000J0D01*
G01*
X9311000Y-13970000D02*
G75*
G03X9311000Y-13970000I-40000J0D01*
G01*
X9438000Y-10922000D02*
G75*
G03X9438000Y-10922000I-40000J0D01*
G01*
X9438000Y-11684000D02*
G75*
G03X9438000Y-11684000I-40000J0D01*
G01*
X9438000Y-12065000D02*
G75*
G03X9438000Y-12065000I-40000J0D01*
G01*
X9438000Y-12827000D02*
G75*
G03X9438000Y-12827000I-40000J0D01*
G01*
X9565000Y-13462000D02*
G75*
G03X9565000Y-13462000I-40000J0D01*
G01*
X9565000Y-13716000D02*
G75*
G03X9565000Y-13716000I-40000J0D01*
G01*
X9565000Y-13970000D02*
G75*
G03X9565000Y-13970000I-40000J0D01*
G01*
X9692000Y-10922000D02*
G75*
G03X9692000Y-10922000I-40000J0D01*
G01*
X9692000Y-11684000D02*
G75*
G03X9692000Y-11684000I-40000J0D01*
G01*
X9692000Y-12065000D02*
G75*
G03X9692000Y-12065000I-40000J0D01*
G01*
X9692000Y-12827000D02*
G75*
G03X9692000Y-12827000I-40000J0D01*
G01*
X9819000Y-13462000D02*
G75*
G03X9819000Y-13462000I-40000J0D01*
G01*
X9819000Y-13716000D02*
G75*
G03X9819000Y-13716000I-40000J0D01*
G01*
X9819000Y-13970000D02*
G75*
G03X9819000Y-13970000I-40000J0D01*
G01*
X9946000Y-10922000D02*
G75*
G03X9946000Y-10922000I-40000J0D01*
G01*
X9946000Y-11684000D02*
G75*
G03X9946000Y-11684000I-40000J0D01*
G01*
X9946000Y-12065000D02*
G75*
G03X9946000Y-12065000I-40000J0D01*
G01*
X9946000Y-12827000D02*
G75*
G03X9946000Y-12827000I-40000J0D01*
G01*
X10073000Y-13462000D02*
G75*
G03X10073000Y-13462000I-40000J0D01*
G01*
X10073000Y-13716000D02*
G75*
G03X10073000Y-13716000I-40000J0D01*
G01*
X10073000Y-13970000D02*
G75*
G03X10073000Y-13970000I-40000J0D01*
G01*
X10200000Y-12065000D02*
G75*
G03X10200000Y-12065000I-40000J0D01*
G01*
X10200000Y-12827000D02*
G75*
G03X10200000Y-12827000I-40000J0D01*
G01*
X10327000Y-13462000D02*
G75*
G03X10327000Y-13462000I-40000J0D01*
G01*
X10327000Y-13716000D02*
G75*
G03X10327000Y-13716000I-40000J0D01*
G01*
X10327000Y-13970000D02*
G75*
G03X10327000Y-13970000I-40000J0D01*
G01*
X10454000Y-11434000D02*
G75*
G03X10454000Y-11434000I-40000J0D01*
G01*
X10454000Y-11684000D02*
G75*
G03X10454000Y-11684000I-40000J0D01*
G01*
X10581000Y-13462000D02*
G75*
G03X10581000Y-13462000I-40000J0D01*
G01*
X10581000Y-13716000D02*
G75*
G03X10581000Y-13716000I-40000J0D01*
G01*
X10581000Y-13970000D02*
G75*
G03X10581000Y-13970000I-40000J0D01*
G01*
X10708000Y-12577000D02*
G75*
G03X10708000Y-12577000I-40000J0D01*
G01*
X10708000Y-12827000D02*
G75*
G03X10708000Y-12827000I-40000J0D01*
G01*
X10835000Y-13462000D02*
G75*
G03X10835000Y-13462000I-40000J0D01*
G01*
X10835000Y-13716000D02*
G75*
G03X10835000Y-13716000I-40000J0D01*
G01*
X10835000Y-13970000D02*
G75*
G03X10835000Y-13970000I-40000J0D01*
G01*
X10962000Y-10922000D02*
G75*
G03X10962000Y-10922000I-40000J0D01*
G01*
X10962000Y-11176000D02*
G75*
G03X10962000Y-11176000I-40000J0D01*
G01*
X11089000Y-13462000D02*
G75*
G03X11089000Y-13462000I-40000J0D01*
G01*
X11089000Y-13716000D02*
G75*
G03X11089000Y-13716000I-40000J0D01*
G01*
X11089000Y-13970000D02*
G75*
G03X11089000Y-13970000I-40000J0D01*
G01*
X11343000Y-13462000D02*
G75*
G03X11343000Y-13462000I-40000J0D01*
G01*
X11343000Y-13716000D02*
G75*
G03X11343000Y-13716000I-40000J0D01*
G01*
X11343000Y-13970000D02*
G75*
G03X11343000Y-13970000I-40000J0D01*
G01*
X11597000Y-13462000D02*
G75*
G03X11597000Y-13462000I-40000J0D01*
G01*
X11597000Y-13716000D02*
G75*
G03X11597000Y-13716000I-40000J0D01*
G01*
X11597000Y-13970000D02*
G75*
G03X11597000Y-13970000I-40000J0D01*
G01*
X11724000Y-10922000D02*
G75*
G03X11724000Y-10922000I-40000J0D01*
G01*
X11724000Y-11176000D02*
G75*
G03X11724000Y-11176000I-40000J0D01*
G01*
X11851000Y-13462000D02*
G75*
G03X11851000Y-13462000I-40000J0D01*
G01*
X11851000Y-13716000D02*
G75*
G03X11851000Y-13716000I-40000J0D01*
G01*
X11851000Y-13970000D02*
G75*
G03X11851000Y-13970000I-40000J0D01*
G01*
X12105000Y-13462000D02*
G75*
G03X12105000Y-13462000I-40000J0D01*
G01*
X12105000Y-13716000D02*
G75*
G03X12105000Y-13716000I-40000J0D01*
G01*
X12105000Y-13970000D02*
G75*
G03X12105000Y-13970000I-40000J0D01*
G01*
X12359000Y-13462000D02*
G75*
G03X12359000Y-13462000I-40000J0D01*
G01*
X12359000Y-13716000D02*
G75*
G03X12359000Y-13716000I-40000J0D01*
G01*
X12359000Y-13970000D02*
G75*
G03X12359000Y-13970000I-40000J0D01*
G01*
X12613000Y-13462000D02*
G75*
G03X12613000Y-13462000I-40000J0D01*
G01*
X12613000Y-13716000D02*
G75*
G03X12613000Y-13716000I-40000J0D01*
G01*
X12613000Y-13970000D02*
G75*
G03X12613000Y-13970000I-40000J0D01*
G01*
X12867000Y-13462000D02*
G75*
G03X12867000Y-13462000I-40000J0D01*
G01*
X12867000Y-13716000D02*
G75*
G03X12867000Y-13716000I-40000J0D01*
G01*
X12867000Y-13970000D02*
G75*
G03X12867000Y-13970000I-40000J0D01*
G01*
X13121000Y-13462000D02*
G75*
G03X13121000Y-13462000I-40000J0D01*
G01*
X13121000Y-13716000D02*
G75*
G03X13121000Y-13716000I-40000J0D01*
G01*
X13121000Y-13970000D02*
G75*
G03X13121000Y-13970000I-40000J0D01*
G01*
X4572000Y-10871200D02*
X4572000Y-10972800D01*
X4521200Y-10922000D02*
X4622800Y-10922000D01*
X4572000Y-11125200D02*
X4572000Y-11226800D01*
X4521200Y-11176000D02*
X4622800Y-11176000D01*
X4572000Y-11379200D02*
X4572000Y-11480800D01*
X4521200Y-11430000D02*
X4622800Y-11430000D01*
X4572000Y-11633200D02*
X4572000Y-11734800D01*
X4521200Y-11684000D02*
X4622800Y-11684000D01*
X4572000Y-11887200D02*
X4572000Y-11988800D01*
X4521200Y-11938000D02*
X4622800Y-11938000D01*
X4572000Y-12141200D02*
X4572000Y-12242800D01*
X4521200Y-12192000D02*
X4622800Y-12192000D01*
X4572000Y-12395200D02*
X4572000Y-12496800D01*
X4521200Y-12446000D02*
X4622800Y-12446000D01*
X4572000Y-12649200D02*
X4572000Y-12750800D01*
X4521200Y-12700000D02*
X4622800Y-12700000D01*
X11430000Y-11760200D02*
X11430000Y-11861800D01*
X11379200Y-11811000D02*
X11480800Y-11811000D01*
X13716000Y-11760200D02*
X13716000Y-11861800D01*
X13665200Y-11811000D02*
X13766800Y-11811000D01*
X4801556Y-14326555D02*
X4801556Y-14121444D01*
X4596445Y-14121444D01*
X4596445Y-14326555D01*
X4801556Y-14326555D01*
X13691555Y-14326555D02*
X13691555Y-14121444D01*
X13486444Y-14121444D01*
X13486444Y-14326555D01*
X13691555Y-14326555D01*
D13*
X4073928Y-14951214D02*
X4073928Y-14651214D01*
X4145357Y-14651214D01*
X4188214Y-14665500D01*
X4216786Y-14694071D01*
X4231071Y-14722643D01*
X4245357Y-14779786D01*
X4245357Y-14822643D01*
X4231071Y-14879786D01*
X4216786Y-14908357D01*
X4188214Y-14936929D01*
X4145357Y-14951214D01*
X4073928Y-14951214D01*
X4373929Y-14951214D02*
X4373929Y-14751214D01*
X4373929Y-14808357D02*
X4388214Y-14779786D01*
X4402500Y-14765500D01*
X4431071Y-14751214D01*
X4459643Y-14751214D01*
X4559643Y-14951214D02*
X4559643Y-14751214D01*
X4559643Y-14651214D02*
X4545357Y-14665500D01*
X4559643Y-14679786D01*
X4573929Y-14665500D01*
X4559643Y-14651214D01*
X4559643Y-14679786D01*
X4745357Y-14951214D02*
X4716786Y-14936929D01*
X4702500Y-14908357D01*
X4702500Y-14651214D01*
X4902500Y-14951214D02*
X4873929Y-14936929D01*
X4859643Y-14908357D01*
X4859643Y-14651214D01*
X5245357Y-14951214D02*
X5245357Y-14651214D01*
X5345357Y-14865500D01*
X5445357Y-14651214D01*
X5445357Y-14951214D01*
X5716786Y-14951214D02*
X5716786Y-14794071D01*
X5702500Y-14765500D01*
X5673928Y-14751214D01*
X5616786Y-14751214D01*
X5588214Y-14765500D01*
X5716786Y-14936929D02*
X5688214Y-14951214D01*
X5616786Y-14951214D01*
X5588214Y-14936929D01*
X5573929Y-14908357D01*
X5573929Y-14879786D01*
X5588214Y-14851214D01*
X5616786Y-14836929D01*
X5688214Y-14836929D01*
X5716786Y-14822643D01*
X5859643Y-14751214D02*
X5859643Y-15051214D01*
X5859643Y-14765500D02*
X5888214Y-14751214D01*
X5945357Y-14751214D01*
X5973928Y-14765500D01*
X5988214Y-14779786D01*
X6002500Y-14808357D01*
X6002500Y-14894071D01*
X5988214Y-14922643D01*
X5973928Y-14936929D01*
X5945357Y-14951214D01*
X5888214Y-14951214D01*
X5859643Y-14936929D01*
X6131071Y-14922643D02*
X6145357Y-14936929D01*
X6131071Y-14951214D01*
X6116786Y-14936929D01*
X6131071Y-14922643D01*
X6131071Y-14951214D01*
X6131071Y-14765500D02*
X6145357Y-14779786D01*
X6131071Y-14794071D01*
X6116786Y-14779786D01*
X6131071Y-14765500D01*
X6131071Y-14794071D01*
X3767500Y-15428000D02*
X3802500Y-15463000D01*
X3802500Y-15428000D02*
X3767500Y-15463000D01*
X4131071Y-15281214D02*
X4159643Y-15281214D01*
X4188214Y-15295500D01*
X4202500Y-15309786D01*
X4216786Y-15338357D01*
X4231071Y-15395500D01*
X4231071Y-15466929D01*
X4216786Y-15524071D01*
X4202500Y-15552643D01*
X4188214Y-15566929D01*
X4159643Y-15581214D01*
X4131071Y-15581214D01*
X4102500Y-15566929D01*
X4088214Y-15552643D01*
X4073928Y-15524071D01*
X4059643Y-15466929D01*
X4059643Y-15395500D01*
X4073928Y-15338357D01*
X4088214Y-15309786D01*
X4102500Y-15295500D01*
X4131071Y-15281214D01*
X4359643Y-15552643D02*
X4373929Y-15566929D01*
X4359643Y-15581214D01*
X4345357Y-15566929D01*
X4359643Y-15552643D01*
X4359643Y-15581214D01*
X4473928Y-15281214D02*
X4659643Y-15281214D01*
X4559643Y-15395500D01*
X4602500Y-15395500D01*
X4631071Y-15409786D01*
X4645357Y-15424071D01*
X4659643Y-15452643D01*
X4659643Y-15524071D01*
X4645357Y-15552643D01*
X4631071Y-15566929D01*
X4602500Y-15581214D01*
X4516786Y-15581214D01*
X4488214Y-15566929D01*
X4473928Y-15552643D01*
X4931071Y-15281214D02*
X4788214Y-15281214D01*
X4773929Y-15424071D01*
X4788214Y-15409786D01*
X4816786Y-15395500D01*
X4888214Y-15395500D01*
X4916786Y-15409786D01*
X4931071Y-15424071D01*
X4945357Y-15452643D01*
X4945357Y-15524071D01*
X4931071Y-15552643D01*
X4916786Y-15566929D01*
X4888214Y-15581214D01*
X4816786Y-15581214D01*
X4788214Y-15566929D01*
X4773929Y-15552643D01*
X5073929Y-15581214D02*
X5073929Y-15381214D01*
X5073929Y-15409786D02*
X5088214Y-15395500D01*
X5116786Y-15381214D01*
X5159643Y-15381214D01*
X5188214Y-15395500D01*
X5202500Y-15424071D01*
X5202500Y-15581214D01*
X5202500Y-15424071D02*
X5216786Y-15395500D01*
X5245357Y-15381214D01*
X5288214Y-15381214D01*
X5316786Y-15395500D01*
X5331071Y-15424071D01*
X5331071Y-15581214D01*
X5473929Y-15581214D02*
X5473929Y-15381214D01*
X5473929Y-15409786D02*
X5488214Y-15395500D01*
X5516786Y-15381214D01*
X5559643Y-15381214D01*
X5588214Y-15395500D01*
X5602500Y-15424071D01*
X5602500Y-15581214D01*
X5602500Y-15424071D02*
X5616786Y-15395500D01*
X5645357Y-15381214D01*
X5688214Y-15381214D01*
X5716786Y-15395500D01*
X5731071Y-15424071D01*
X5731071Y-15581214D01*
X6316786Y-15266929D02*
X6059643Y-15652643D01*
X6702500Y-15281214D02*
X6731071Y-15281214D01*
X6759643Y-15295500D01*
X6773928Y-15309786D01*
X6788214Y-15338357D01*
X6802500Y-15395500D01*
X6802500Y-15466929D01*
X6788214Y-15524071D01*
X6773928Y-15552643D01*
X6759643Y-15566929D01*
X6731071Y-15581214D01*
X6702500Y-15581214D01*
X6673928Y-15566929D01*
X6659643Y-15552643D01*
X6645357Y-15524071D01*
X6631071Y-15466929D01*
X6631071Y-15395500D01*
X6645357Y-15338357D01*
X6659643Y-15309786D01*
X6673928Y-15295500D01*
X6702500Y-15281214D01*
X6931071Y-15552643D02*
X6945357Y-15566929D01*
X6931071Y-15581214D01*
X6916786Y-15566929D01*
X6931071Y-15552643D01*
X6931071Y-15581214D01*
X7131071Y-15281214D02*
X7159643Y-15281214D01*
X7188214Y-15295500D01*
X7202500Y-15309786D01*
X7216785Y-15338357D01*
X7231071Y-15395500D01*
X7231071Y-15466929D01*
X7216785Y-15524071D01*
X7202500Y-15552643D01*
X7188214Y-15566929D01*
X7159643Y-15581214D01*
X7131071Y-15581214D01*
X7102500Y-15566929D01*
X7088214Y-15552643D01*
X7073928Y-15524071D01*
X7059643Y-15466929D01*
X7059643Y-15395500D01*
X7073928Y-15338357D01*
X7088214Y-15309786D01*
X7102500Y-15295500D01*
X7131071Y-15281214D01*
X7516785Y-15581214D02*
X7345357Y-15581214D01*
X7431071Y-15581214D02*
X7431071Y-15281214D01*
X7402500Y-15324071D01*
X7373928Y-15352643D01*
X7345357Y-15366929D01*
X7773928Y-15381214D02*
X7773928Y-15581214D01*
X7702500Y-15266929D02*
X7631071Y-15481214D01*
X7816785Y-15481214D01*
X7916786Y-15281214D02*
X7916786Y-15338357D01*
X8031071Y-15281214D02*
X8031071Y-15338357D01*
X8473928Y-15695500D02*
X8459643Y-15681214D01*
X8431071Y-15638357D01*
X8416786Y-15609786D01*
X8402500Y-15566929D01*
X8388214Y-15495500D01*
X8388214Y-15438357D01*
X8402500Y-15366929D01*
X8416786Y-15324071D01*
X8431071Y-15295500D01*
X8459643Y-15252643D01*
X8473928Y-15238357D01*
X8573928Y-15309786D02*
X8588214Y-15295500D01*
X8616786Y-15281214D01*
X8688214Y-15281214D01*
X8716786Y-15295500D01*
X8731071Y-15309786D01*
X8745357Y-15338357D01*
X8745357Y-15366929D01*
X8731071Y-15409786D01*
X8559643Y-15581214D01*
X8745357Y-15581214D01*
X8859643Y-15309786D02*
X8873928Y-15295500D01*
X8902500Y-15281214D01*
X8973928Y-15281214D01*
X9002500Y-15295500D01*
X9016786Y-15309786D01*
X9031071Y-15338357D01*
X9031071Y-15366929D01*
X9016786Y-15409786D01*
X8845357Y-15581214D01*
X9031071Y-15581214D01*
X9388214Y-15581214D02*
X9388214Y-15281214D01*
X9516786Y-15581214D02*
X9516786Y-15424071D01*
X9502500Y-15395500D01*
X9473928Y-15381214D01*
X9431071Y-15381214D01*
X9402500Y-15395500D01*
X9388214Y-15409786D01*
X9702500Y-15581214D02*
X9673928Y-15566929D01*
X9659643Y-15552643D01*
X9645357Y-15524071D01*
X9645357Y-15438357D01*
X9659643Y-15409786D01*
X9673928Y-15395500D01*
X9702500Y-15381214D01*
X9745357Y-15381214D01*
X9773928Y-15395500D01*
X9788214Y-15409786D01*
X9802500Y-15438357D01*
X9802500Y-15524071D01*
X9788214Y-15552643D01*
X9773928Y-15566929D01*
X9745357Y-15581214D01*
X9702500Y-15581214D01*
X9973928Y-15581214D02*
X9945357Y-15566929D01*
X9931071Y-15538357D01*
X9931071Y-15281214D01*
X10202500Y-15566929D02*
X10173929Y-15581214D01*
X10116786Y-15581214D01*
X10088214Y-15566929D01*
X10073929Y-15538357D01*
X10073929Y-15424071D01*
X10088214Y-15395500D01*
X10116786Y-15381214D01*
X10173929Y-15381214D01*
X10202500Y-15395500D01*
X10216786Y-15424071D01*
X10216786Y-15452643D01*
X10073929Y-15481214D01*
X10331071Y-15566929D02*
X10359643Y-15581214D01*
X10416786Y-15581214D01*
X10445357Y-15566929D01*
X10459643Y-15538357D01*
X10459643Y-15524071D01*
X10445357Y-15495500D01*
X10416786Y-15481214D01*
X10373929Y-15481214D01*
X10345357Y-15466929D01*
X10331071Y-15438357D01*
X10331071Y-15424071D01*
X10345357Y-15395500D01*
X10373929Y-15381214D01*
X10416786Y-15381214D01*
X10445357Y-15395500D01*
X10559643Y-15695500D02*
X10573929Y-15681214D01*
X10602500Y-15638357D01*
X10616786Y-15609786D01*
X10631071Y-15566929D01*
X10645357Y-15495500D01*
X10645357Y-15438357D01*
X10631071Y-15366929D01*
X10616786Y-15324071D01*
X10602500Y-15295500D01*
X10573929Y-15252643D01*
X10559643Y-15238357D01*
X3802500Y-15841500D02*
G75*
G03X3802500Y-15841500I-40000J0D01*
G01*
X4131071Y-15677214D02*
X4159643Y-15677214D01*
X4188214Y-15691500D01*
X4202500Y-15705786D01*
X4216786Y-15734357D01*
X4231071Y-15791500D01*
X4231071Y-15862929D01*
X4216786Y-15920071D01*
X4202500Y-15948643D01*
X4188214Y-15962929D01*
X4159643Y-15977214D01*
X4131071Y-15977214D01*
X4102500Y-15962929D01*
X4088214Y-15948643D01*
X4073928Y-15920071D01*
X4059643Y-15862929D01*
X4059643Y-15791500D01*
X4073928Y-15734357D01*
X4088214Y-15705786D01*
X4102500Y-15691500D01*
X4131071Y-15677214D01*
X4359643Y-15948643D02*
X4373929Y-15962929D01*
X4359643Y-15977214D01*
X4345357Y-15962929D01*
X4359643Y-15948643D01*
X4359643Y-15977214D01*
X4545357Y-15805786D02*
X4516786Y-15791500D01*
X4502500Y-15777214D01*
X4488214Y-15748643D01*
X4488214Y-15734357D01*
X4502500Y-15705786D01*
X4516786Y-15691500D01*
X4545357Y-15677214D01*
X4602500Y-15677214D01*
X4631071Y-15691500D01*
X4645357Y-15705786D01*
X4659643Y-15734357D01*
X4659643Y-15748643D01*
X4645357Y-15777214D01*
X4631071Y-15791500D01*
X4602500Y-15805786D01*
X4545357Y-15805786D01*
X4516786Y-15820071D01*
X4502500Y-15834357D01*
X4488214Y-15862929D01*
X4488214Y-15920071D01*
X4502500Y-15948643D01*
X4516786Y-15962929D01*
X4545357Y-15977214D01*
X4602500Y-15977214D01*
X4631071Y-15962929D01*
X4645357Y-15948643D01*
X4659643Y-15920071D01*
X4659643Y-15862929D01*
X4645357Y-15834357D01*
X4631071Y-15820071D01*
X4602500Y-15805786D01*
X4845357Y-15677214D02*
X4873929Y-15677214D01*
X4902500Y-15691500D01*
X4916786Y-15705786D01*
X4931071Y-15734357D01*
X4945357Y-15791500D01*
X4945357Y-15862929D01*
X4931071Y-15920071D01*
X4916786Y-15948643D01*
X4902500Y-15962929D01*
X4873929Y-15977214D01*
X4845357Y-15977214D01*
X4816786Y-15962929D01*
X4802500Y-15948643D01*
X4788214Y-15920071D01*
X4773929Y-15862929D01*
X4773929Y-15791500D01*
X4788214Y-15734357D01*
X4802500Y-15705786D01*
X4816786Y-15691500D01*
X4845357Y-15677214D01*
X5073929Y-15977214D02*
X5073929Y-15777214D01*
X5073929Y-15805786D02*
X5088214Y-15791500D01*
X5116786Y-15777214D01*
X5159643Y-15777214D01*
X5188214Y-15791500D01*
X5202500Y-15820071D01*
X5202500Y-15977214D01*
X5202500Y-15820071D02*
X5216786Y-15791500D01*
X5245357Y-15777214D01*
X5288214Y-15777214D01*
X5316786Y-15791500D01*
X5331071Y-15820071D01*
X5331071Y-15977214D01*
X5473929Y-15977214D02*
X5473929Y-15777214D01*
X5473929Y-15805786D02*
X5488214Y-15791500D01*
X5516786Y-15777214D01*
X5559643Y-15777214D01*
X5588214Y-15791500D01*
X5602500Y-15820071D01*
X5602500Y-15977214D01*
X5602500Y-15820071D02*
X5616786Y-15791500D01*
X5645357Y-15777214D01*
X5688214Y-15777214D01*
X5716786Y-15791500D01*
X5731071Y-15820071D01*
X5731071Y-15977214D01*
X6316786Y-15662929D02*
X6059643Y-16048643D01*
X6702500Y-15677214D02*
X6731071Y-15677214D01*
X6759643Y-15691500D01*
X6773928Y-15705786D01*
X6788214Y-15734357D01*
X6802500Y-15791500D01*
X6802500Y-15862929D01*
X6788214Y-15920071D01*
X6773928Y-15948643D01*
X6759643Y-15962929D01*
X6731071Y-15977214D01*
X6702500Y-15977214D01*
X6673928Y-15962929D01*
X6659643Y-15948643D01*
X6645357Y-15920071D01*
X6631071Y-15862929D01*
X6631071Y-15791500D01*
X6645357Y-15734357D01*
X6659643Y-15705786D01*
X6673928Y-15691500D01*
X6702500Y-15677214D01*
X6931071Y-15948643D02*
X6945357Y-15962929D01*
X6931071Y-15977214D01*
X6916786Y-15962929D01*
X6931071Y-15948643D01*
X6931071Y-15977214D01*
X7131071Y-15677214D02*
X7159643Y-15677214D01*
X7188214Y-15691500D01*
X7202500Y-15705786D01*
X7216785Y-15734357D01*
X7231071Y-15791500D01*
X7231071Y-15862929D01*
X7216785Y-15920071D01*
X7202500Y-15948643D01*
X7188214Y-15962929D01*
X7159643Y-15977214D01*
X7131071Y-15977214D01*
X7102500Y-15962929D01*
X7088214Y-15948643D01*
X7073928Y-15920071D01*
X7059643Y-15862929D01*
X7059643Y-15791500D01*
X7073928Y-15734357D01*
X7088214Y-15705786D01*
X7102500Y-15691500D01*
X7131071Y-15677214D01*
X7331071Y-15677214D02*
X7516785Y-15677214D01*
X7416785Y-15791500D01*
X7459643Y-15791500D01*
X7488214Y-15805786D01*
X7502500Y-15820071D01*
X7516785Y-15848643D01*
X7516785Y-15920071D01*
X7502500Y-15948643D01*
X7488214Y-15962929D01*
X7459643Y-15977214D01*
X7373928Y-15977214D01*
X7345357Y-15962929D01*
X7331071Y-15948643D01*
X7802500Y-15977214D02*
X7631071Y-15977214D01*
X7716785Y-15977214D02*
X7716785Y-15677214D01*
X7688214Y-15720071D01*
X7659643Y-15748643D01*
X7631071Y-15762929D01*
X7916786Y-15677214D02*
X7916786Y-15734357D01*
X8031071Y-15677214D02*
X8031071Y-15734357D01*
X8473928Y-16091500D02*
X8459643Y-16077214D01*
X8431071Y-16034357D01*
X8416786Y-16005786D01*
X8402500Y-15962929D01*
X8388214Y-15891500D01*
X8388214Y-15834357D01*
X8402500Y-15762929D01*
X8416786Y-15720071D01*
X8431071Y-15691500D01*
X8459643Y-15648643D01*
X8473928Y-15634357D01*
X8745357Y-15977214D02*
X8573928Y-15977214D01*
X8659643Y-15977214D02*
X8659643Y-15677214D01*
X8631071Y-15720071D01*
X8602500Y-15748643D01*
X8573928Y-15762929D01*
X8845357Y-15677214D02*
X9045357Y-15677214D01*
X8916786Y-15977214D01*
X9202500Y-15805786D02*
X9173928Y-15791500D01*
X9159643Y-15777214D01*
X9145357Y-15748643D01*
X9145357Y-15734357D01*
X9159643Y-15705786D01*
X9173928Y-15691500D01*
X9202500Y-15677214D01*
X9259643Y-15677214D01*
X9288214Y-15691500D01*
X9302500Y-15705786D01*
X9316786Y-15734357D01*
X9316786Y-15748643D01*
X9302500Y-15777214D01*
X9288214Y-15791500D01*
X9259643Y-15805786D01*
X9202500Y-15805786D01*
X9173928Y-15820071D01*
X9159643Y-15834357D01*
X9145357Y-15862929D01*
X9145357Y-15920071D01*
X9159643Y-15948643D01*
X9173928Y-15962929D01*
X9202500Y-15977214D01*
X9259643Y-15977214D01*
X9288214Y-15962929D01*
X9302500Y-15948643D01*
X9316786Y-15920071D01*
X9316786Y-15862929D01*
X9302500Y-15834357D01*
X9288214Y-15820071D01*
X9259643Y-15805786D01*
X9673928Y-15977214D02*
X9673928Y-15677214D01*
X9802500Y-15977214D02*
X9802500Y-15820071D01*
X9788214Y-15791500D01*
X9759643Y-15777214D01*
X9716786Y-15777214D01*
X9688214Y-15791500D01*
X9673928Y-15805786D01*
X9988214Y-15977214D02*
X9959643Y-15962929D01*
X9945357Y-15948643D01*
X9931071Y-15920071D01*
X9931071Y-15834357D01*
X9945357Y-15805786D01*
X9959643Y-15791500D01*
X9988214Y-15777214D01*
X10031071Y-15777214D01*
X10059643Y-15791500D01*
X10073928Y-15805786D01*
X10088214Y-15834357D01*
X10088214Y-15920071D01*
X10073928Y-15948643D01*
X10059643Y-15962929D01*
X10031071Y-15977214D01*
X9988214Y-15977214D01*
X10259643Y-15977214D02*
X10231071Y-15962929D01*
X10216786Y-15934357D01*
X10216786Y-15677214D01*
X10488214Y-15962929D02*
X10459643Y-15977214D01*
X10402500Y-15977214D01*
X10373929Y-15962929D01*
X10359643Y-15934357D01*
X10359643Y-15820071D01*
X10373929Y-15791500D01*
X10402500Y-15777214D01*
X10459643Y-15777214D01*
X10488214Y-15791500D01*
X10502500Y-15820071D01*
X10502500Y-15848643D01*
X10359643Y-15877214D01*
X10616786Y-15962929D02*
X10645357Y-15977214D01*
X10702500Y-15977214D01*
X10731071Y-15962929D01*
X10745357Y-15934357D01*
X10745357Y-15920071D01*
X10731071Y-15891500D01*
X10702500Y-15877214D01*
X10659643Y-15877214D01*
X10631071Y-15862929D01*
X10616786Y-15834357D01*
X10616786Y-15820071D01*
X10631071Y-15791500D01*
X10659643Y-15777214D01*
X10702500Y-15777214D01*
X10731071Y-15791500D01*
X10845357Y-16091500D02*
X10859643Y-16077214D01*
X10888214Y-16034357D01*
X10902500Y-16005786D01*
X10916786Y-15962929D01*
X10931071Y-15891500D01*
X10931071Y-15834357D01*
X10916786Y-15762929D01*
X10902500Y-15720071D01*
X10888214Y-15691500D01*
X10859643Y-15648643D01*
X10845357Y-15634357D01*
X3751700Y-16186700D02*
X3751700Y-16288300D01*
X3700900Y-16237500D02*
X3802500Y-16237500D01*
X4231071Y-16373214D02*
X4059643Y-16373214D01*
X4145357Y-16373214D02*
X4145357Y-16073214D01*
X4116786Y-16116071D01*
X4088214Y-16144643D01*
X4059643Y-16158929D01*
X4359643Y-16344643D02*
X4373929Y-16358929D01*
X4359643Y-16373214D01*
X4345357Y-16358929D01*
X4359643Y-16344643D01*
X4359643Y-16373214D01*
X4559643Y-16073214D02*
X4588214Y-16073214D01*
X4616786Y-16087500D01*
X4631071Y-16101786D01*
X4645357Y-16130357D01*
X4659643Y-16187500D01*
X4659643Y-16258929D01*
X4645357Y-16316071D01*
X4631071Y-16344643D01*
X4616786Y-16358929D01*
X4588214Y-16373214D01*
X4559643Y-16373214D01*
X4531071Y-16358929D01*
X4516786Y-16344643D01*
X4502500Y-16316071D01*
X4488214Y-16258929D01*
X4488214Y-16187500D01*
X4502500Y-16130357D01*
X4516786Y-16101786D01*
X4531071Y-16087500D01*
X4559643Y-16073214D01*
X4773929Y-16101786D02*
X4788214Y-16087500D01*
X4816786Y-16073214D01*
X4888214Y-16073214D01*
X4916786Y-16087500D01*
X4931071Y-16101786D01*
X4945357Y-16130357D01*
X4945357Y-16158929D01*
X4931071Y-16201786D01*
X4759643Y-16373214D01*
X4945357Y-16373214D01*
X5073929Y-16373214D02*
X5073929Y-16173214D01*
X5073929Y-16201786D02*
X5088214Y-16187500D01*
X5116786Y-16173214D01*
X5159643Y-16173214D01*
X5188214Y-16187500D01*
X5202500Y-16216071D01*
X5202500Y-16373214D01*
X5202500Y-16216071D02*
X5216786Y-16187500D01*
X5245357Y-16173214D01*
X5288214Y-16173214D01*
X5316786Y-16187500D01*
X5331071Y-16216071D01*
X5331071Y-16373214D01*
X5473929Y-16373214D02*
X5473929Y-16173214D01*
X5473929Y-16201786D02*
X5488214Y-16187500D01*
X5516786Y-16173214D01*
X5559643Y-16173214D01*
X5588214Y-16187500D01*
X5602500Y-16216071D01*
X5602500Y-16373214D01*
X5602500Y-16216071D02*
X5616786Y-16187500D01*
X5645357Y-16173214D01*
X5688214Y-16173214D01*
X5716786Y-16187500D01*
X5731071Y-16216071D01*
X5731071Y-16373214D01*
X6316786Y-16058929D02*
X6059643Y-16444643D01*
X6702500Y-16073214D02*
X6731071Y-16073214D01*
X6759643Y-16087500D01*
X6773928Y-16101786D01*
X6788214Y-16130357D01*
X6802500Y-16187500D01*
X6802500Y-16258929D01*
X6788214Y-16316071D01*
X6773928Y-16344643D01*
X6759643Y-16358929D01*
X6731071Y-16373214D01*
X6702500Y-16373214D01*
X6673928Y-16358929D01*
X6659643Y-16344643D01*
X6645357Y-16316071D01*
X6631071Y-16258929D01*
X6631071Y-16187500D01*
X6645357Y-16130357D01*
X6659643Y-16101786D01*
X6673928Y-16087500D01*
X6702500Y-16073214D01*
X6931071Y-16344643D02*
X6945357Y-16358929D01*
X6931071Y-16373214D01*
X6916786Y-16358929D01*
X6931071Y-16344643D01*
X6931071Y-16373214D01*
X7131071Y-16073214D02*
X7159643Y-16073214D01*
X7188214Y-16087500D01*
X7202500Y-16101786D01*
X7216785Y-16130357D01*
X7231071Y-16187500D01*
X7231071Y-16258929D01*
X7216785Y-16316071D01*
X7202500Y-16344643D01*
X7188214Y-16358929D01*
X7159643Y-16373214D01*
X7131071Y-16373214D01*
X7102500Y-16358929D01*
X7088214Y-16344643D01*
X7073928Y-16316071D01*
X7059643Y-16258929D01*
X7059643Y-16187500D01*
X7073928Y-16130357D01*
X7088214Y-16101786D01*
X7102500Y-16087500D01*
X7131071Y-16073214D01*
X7488214Y-16173214D02*
X7488214Y-16373214D01*
X7416785Y-16058929D02*
X7345357Y-16273214D01*
X7531071Y-16273214D01*
X7702500Y-16073214D02*
X7731071Y-16073214D01*
X7759643Y-16087500D01*
X7773928Y-16101786D01*
X7788214Y-16130357D01*
X7802500Y-16187500D01*
X7802500Y-16258929D01*
X7788214Y-16316071D01*
X7773928Y-16344643D01*
X7759643Y-16358929D01*
X7731071Y-16373214D01*
X7702500Y-16373214D01*
X7673928Y-16358929D01*
X7659643Y-16344643D01*
X7645357Y-16316071D01*
X7631071Y-16258929D01*
X7631071Y-16187500D01*
X7645357Y-16130357D01*
X7659643Y-16101786D01*
X7673928Y-16087500D01*
X7702500Y-16073214D01*
X7916786Y-16073214D02*
X7916786Y-16130357D01*
X8031071Y-16073214D02*
X8031071Y-16130357D01*
X8473928Y-16487500D02*
X8459643Y-16473214D01*
X8431071Y-16430357D01*
X8416786Y-16401786D01*
X8402500Y-16358929D01*
X8388214Y-16287500D01*
X8388214Y-16230357D01*
X8402500Y-16158929D01*
X8416786Y-16116071D01*
X8431071Y-16087500D01*
X8459643Y-16044643D01*
X8473928Y-16030357D01*
X8745357Y-16373214D02*
X8573928Y-16373214D01*
X8659643Y-16373214D02*
X8659643Y-16073214D01*
X8631071Y-16116071D01*
X8602500Y-16144643D01*
X8573928Y-16158929D01*
X8931071Y-16073214D02*
X8959643Y-16073214D01*
X8988214Y-16087500D01*
X9002500Y-16101786D01*
X9016786Y-16130357D01*
X9031071Y-16187500D01*
X9031071Y-16258929D01*
X9016786Y-16316071D01*
X9002500Y-16344643D01*
X8988214Y-16358929D01*
X8959643Y-16373214D01*
X8931071Y-16373214D01*
X8902500Y-16358929D01*
X8888214Y-16344643D01*
X8873928Y-16316071D01*
X8859643Y-16258929D01*
X8859643Y-16187500D01*
X8873928Y-16130357D01*
X8888214Y-16101786D01*
X8902500Y-16087500D01*
X8931071Y-16073214D01*
X9388214Y-16373214D02*
X9388214Y-16073214D01*
X9516786Y-16373214D02*
X9516786Y-16216071D01*
X9502500Y-16187500D01*
X9473928Y-16173214D01*
X9431071Y-16173214D01*
X9402500Y-16187500D01*
X9388214Y-16201786D01*
X9702500Y-16373214D02*
X9673928Y-16358929D01*
X9659643Y-16344643D01*
X9645357Y-16316071D01*
X9645357Y-16230357D01*
X9659643Y-16201786D01*
X9673928Y-16187500D01*
X9702500Y-16173214D01*
X9745357Y-16173214D01*
X9773928Y-16187500D01*
X9788214Y-16201786D01*
X9802500Y-16230357D01*
X9802500Y-16316071D01*
X9788214Y-16344643D01*
X9773928Y-16358929D01*
X9745357Y-16373214D01*
X9702500Y-16373214D01*
X9973928Y-16373214D02*
X9945357Y-16358929D01*
X9931071Y-16330357D01*
X9931071Y-16073214D01*
X10202500Y-16358929D02*
X10173929Y-16373214D01*
X10116786Y-16373214D01*
X10088214Y-16358929D01*
X10073929Y-16330357D01*
X10073929Y-16216071D01*
X10088214Y-16187500D01*
X10116786Y-16173214D01*
X10173929Y-16173214D01*
X10202500Y-16187500D01*
X10216786Y-16216071D01*
X10216786Y-16244643D01*
X10073929Y-16273214D01*
X10331071Y-16358929D02*
X10359643Y-16373214D01*
X10416786Y-16373214D01*
X10445357Y-16358929D01*
X10459643Y-16330357D01*
X10459643Y-16316071D01*
X10445357Y-16287500D01*
X10416786Y-16273214D01*
X10373929Y-16273214D01*
X10345357Y-16258929D01*
X10331071Y-16230357D01*
X10331071Y-16216071D01*
X10345357Y-16187500D01*
X10373929Y-16173214D01*
X10416786Y-16173214D01*
X10445357Y-16187500D01*
X10559643Y-16487500D02*
X10573929Y-16473214D01*
X10602500Y-16430357D01*
X10616786Y-16401786D01*
X10631071Y-16358929D01*
X10645357Y-16287500D01*
X10645357Y-16230357D01*
X10631071Y-16158929D01*
X10616786Y-16116071D01*
X10602500Y-16087500D01*
X10573929Y-16044643D01*
X10559643Y-16030357D01*
X3760021Y-16736056D02*
X3760021Y-16530945D01*
X3554910Y-16530945D01*
X3554910Y-16736056D01*
X3760021Y-16736056D01*
X4059643Y-16497786D02*
X4073928Y-16483500D01*
X4102500Y-16469214D01*
X4173928Y-16469214D01*
X4202500Y-16483500D01*
X4216786Y-16497786D01*
X4231071Y-16526357D01*
X4231071Y-16554929D01*
X4216786Y-16597786D01*
X4045357Y-16769214D01*
X4231071Y-16769214D01*
X4359643Y-16740643D02*
X4373929Y-16754929D01*
X4359643Y-16769214D01*
X4345357Y-16754929D01*
X4359643Y-16740643D01*
X4359643Y-16769214D01*
X4516786Y-16769214D02*
X4573928Y-16769214D01*
X4602500Y-16754929D01*
X4616786Y-16740643D01*
X4645357Y-16697786D01*
X4659643Y-16640643D01*
X4659643Y-16526357D01*
X4645357Y-16497786D01*
X4631071Y-16483500D01*
X4602500Y-16469214D01*
X4545357Y-16469214D01*
X4516786Y-16483500D01*
X4502500Y-16497786D01*
X4488214Y-16526357D01*
X4488214Y-16597786D01*
X4502500Y-16626357D01*
X4516786Y-16640643D01*
X4545357Y-16654929D01*
X4602500Y-16654929D01*
X4631071Y-16640643D01*
X4645357Y-16626357D01*
X4659643Y-16597786D01*
X4845357Y-16469214D02*
X4873929Y-16469214D01*
X4902500Y-16483500D01*
X4916786Y-16497786D01*
X4931071Y-16526357D01*
X4945357Y-16583500D01*
X4945357Y-16654929D01*
X4931071Y-16712071D01*
X4916786Y-16740643D01*
X4902500Y-16754929D01*
X4873929Y-16769214D01*
X4845357Y-16769214D01*
X4816786Y-16754929D01*
X4802500Y-16740643D01*
X4788214Y-16712071D01*
X4773929Y-16654929D01*
X4773929Y-16583500D01*
X4788214Y-16526357D01*
X4802500Y-16497786D01*
X4816786Y-16483500D01*
X4845357Y-16469214D01*
X5073929Y-16769214D02*
X5073929Y-16569214D01*
X5073929Y-16597786D02*
X5088214Y-16583500D01*
X5116786Y-16569214D01*
X5159643Y-16569214D01*
X5188214Y-16583500D01*
X5202500Y-16612071D01*
X5202500Y-16769214D01*
X5202500Y-16612071D02*
X5216786Y-16583500D01*
X5245357Y-16569214D01*
X5288214Y-16569214D01*
X5316786Y-16583500D01*
X5331071Y-16612071D01*
X5331071Y-16769214D01*
X5473929Y-16769214D02*
X5473929Y-16569214D01*
X5473929Y-16597786D02*
X5488214Y-16583500D01*
X5516786Y-16569214D01*
X5559643Y-16569214D01*
X5588214Y-16583500D01*
X5602500Y-16612071D01*
X5602500Y-16769214D01*
X5602500Y-16612071D02*
X5616786Y-16583500D01*
X5645357Y-16569214D01*
X5688214Y-16569214D01*
X5716786Y-16583500D01*
X5731071Y-16612071D01*
X5731071Y-16769214D01*
X6316786Y-16454929D02*
X6059643Y-16840643D01*
X6702500Y-16469214D02*
X6731071Y-16469214D01*
X6759643Y-16483500D01*
X6773928Y-16497786D01*
X6788214Y-16526357D01*
X6802500Y-16583500D01*
X6802500Y-16654929D01*
X6788214Y-16712071D01*
X6773928Y-16740643D01*
X6759643Y-16754929D01*
X6731071Y-16769214D01*
X6702500Y-16769214D01*
X6673928Y-16754929D01*
X6659643Y-16740643D01*
X6645357Y-16712071D01*
X6631071Y-16654929D01*
X6631071Y-16583500D01*
X6645357Y-16526357D01*
X6659643Y-16497786D01*
X6673928Y-16483500D01*
X6702500Y-16469214D01*
X6931071Y-16740643D02*
X6945357Y-16754929D01*
X6931071Y-16769214D01*
X6916786Y-16754929D01*
X6931071Y-16740643D01*
X6931071Y-16769214D01*
X7231071Y-16769214D02*
X7059643Y-16769214D01*
X7145357Y-16769214D02*
X7145357Y-16469214D01*
X7116785Y-16512071D01*
X7088214Y-16540643D01*
X7059643Y-16554929D01*
X7516785Y-16769214D02*
X7345357Y-16769214D01*
X7431071Y-16769214D02*
X7431071Y-16469214D01*
X7402500Y-16512071D01*
X7373928Y-16540643D01*
X7345357Y-16554929D01*
X7773928Y-16569214D02*
X7773928Y-16769214D01*
X7702500Y-16454929D02*
X7631071Y-16669214D01*
X7816785Y-16669214D01*
X7916786Y-16469214D02*
X7916786Y-16526357D01*
X8031071Y-16469214D02*
X8031071Y-16526357D01*
X8473928Y-16883500D02*
X8459643Y-16869214D01*
X8431071Y-16826357D01*
X8416786Y-16797786D01*
X8402500Y-16754929D01*
X8388214Y-16683500D01*
X8388214Y-16626357D01*
X8402500Y-16554929D01*
X8416786Y-16512071D01*
X8431071Y-16483500D01*
X8459643Y-16440643D01*
X8473928Y-16426357D01*
X8573928Y-16497786D02*
X8588214Y-16483500D01*
X8616786Y-16469214D01*
X8688214Y-16469214D01*
X8716786Y-16483500D01*
X8731071Y-16497786D01*
X8745357Y-16526357D01*
X8745357Y-16554929D01*
X8731071Y-16597786D01*
X8559643Y-16769214D01*
X8745357Y-16769214D01*
X9102500Y-16769214D02*
X9102500Y-16469214D01*
X9231071Y-16769214D02*
X9231071Y-16612071D01*
X9216786Y-16583500D01*
X9188214Y-16569214D01*
X9145357Y-16569214D01*
X9116786Y-16583500D01*
X9102500Y-16597786D01*
X9416786Y-16769214D02*
X9388214Y-16754929D01*
X9373928Y-16740643D01*
X9359643Y-16712071D01*
X9359643Y-16626357D01*
X9373928Y-16597786D01*
X9388214Y-16583500D01*
X9416786Y-16569214D01*
X9459643Y-16569214D01*
X9488214Y-16583500D01*
X9502500Y-16597786D01*
X9516786Y-16626357D01*
X9516786Y-16712071D01*
X9502500Y-16740643D01*
X9488214Y-16754929D01*
X9459643Y-16769214D01*
X9416786Y-16769214D01*
X9688214Y-16769214D02*
X9659643Y-16754929D01*
X9645357Y-16726357D01*
X9645357Y-16469214D01*
X9916786Y-16754929D02*
X9888214Y-16769214D01*
X9831071Y-16769214D01*
X9802500Y-16754929D01*
X9788214Y-16726357D01*
X9788214Y-16612071D01*
X9802500Y-16583500D01*
X9831071Y-16569214D01*
X9888214Y-16569214D01*
X9916786Y-16583500D01*
X9931071Y-16612071D01*
X9931071Y-16640643D01*
X9788214Y-16669214D01*
X10045357Y-16754929D02*
X10073929Y-16769214D01*
X10131071Y-16769214D01*
X10159643Y-16754929D01*
X10173929Y-16726357D01*
X10173929Y-16712071D01*
X10159643Y-16683500D01*
X10131071Y-16669214D01*
X10088214Y-16669214D01*
X10059643Y-16654929D01*
X10045357Y-16626357D01*
X10045357Y-16612071D01*
X10059643Y-16583500D01*
X10088214Y-16569214D01*
X10131071Y-16569214D01*
X10159643Y-16583500D01*
X10273928Y-16883500D02*
X10288214Y-16869214D01*
X10316786Y-16826357D01*
X10331071Y-16797786D01*
X10345357Y-16754929D01*
X10359643Y-16683500D01*
X10359643Y-16626357D01*
X10345357Y-16554929D01*
X10331071Y-16512071D01*
X10316786Y-16483500D01*
X10288214Y-16440643D01*
X10273928Y-16426357D01*
M02*
